<?xml version="1.0" encoding="utf-8"?>
<!-- Generator: Adobe Illustrator 19.0.0, SVG Export Plug-In . SVG Version: 6.00 Build 0)  -->
<svg version="1.1" id="Calque_1" xmlns="http://www.w3.org/2000/svg" xmlns:xlink="http://www.w3.org/1999/xlink" x="0px" y="0px"
	 viewBox="0 0 400 400" style="enable-background:new 0 0 400 400;" xml:space="preserve">
<g id="Layer_2">
	<polygon id="XMLID_328_" style="fill:none;" points="286.2,124.6 283.9,124.6 283.9,115.3 290.4,100.9 290,93.3 288.9,74.9 
		288.1,60.5 368.2,60.5 368.2,311.2 330.4,311.2 330.4,232.6 330.4,231.5 330.4,201.6 330.4,200.5 330.4,184.5 330.4,183.6 
		330.4,168 330.4,167.3 330.4,142.6 302.6,142.6 295.1,131.5 294.1,131.1 288,128.6 288,124.6 	"/>
	<polygon id="XMLID_327_" style="fill:none;" points="330.4,311.2 330.4,356.5 301.9,356.5 296.9,311.2 	"/>
	<polygon id="XMLID_326_" style="fill:none;" points="317.8,254.1 318.4,253.6 296.2,229.4 305.2,215.4 330.4,232.6 330.4,311.2 
		296.9,311.2 293.7,282 306.4,279.9 303.8,275.9 295.5,263 308,259 306.1,256.2 292.1,235.8 295.8,230.1 	"/>
	<polygon id="XMLID_325_" style="fill:#130524;" points="330.4,231.5 330.4,232.6 305.2,215.4 305.6,214.6 	"/>
	<polygon id="XMLID_324_" style="fill:none;" points="311,206.3 315,200 310.8,200 311.2,195.2 330.4,201.6 330.4,231.5 
		305.6,214.6 	"/>
	<polygon id="XMLID_323_" style="fill:#130524;" points="330.4,200.5 330.4,201.6 311.2,195.2 311.3,194.2 	"/>
	<polygon id="XMLID_322_" style="fill:none;" points="317.1,183.2 317.5,177.4 335.6,180.7 335.6,196.7 316.5,190.4 	"/>
	<polygon id="XMLID_321_" style="fill:#130524;" points="330.4,183.6 330.4,184.5 312.4,181.3 312.4,180.4 	"/>
	<polygon id="XMLID_320_" style="fill:none;" points="330.4,168 330.4,183.6 312.4,180.4 313.5,168 	"/>
	<polygon id="XMLID_319_" style="fill:#130524;" points="330.4,167.3 330.4,168 313.5,168 313.5,167.3 	"/>
	<polygon id="XMLID_318_" style="fill:none;" points="307.5,149.9 307,149.2 302.6,142.6 330.4,142.6 330.4,167.3 313.5,167.3 
		314.1,159.8 	"/>
	<polygon id="XMLID_317_" style="fill:#130524;" points="318.4,253.6 317.8,254.1 295.8,230.1 296.2,229.4 	"/>
	<polygon id="XMLID_316_" style="fill:#130524;" points="307.2,202.5 298.9,210 297,208.7 296.3,190.2 311.2,195.2 310.8,200 
		315,200 311,206.3 	"/>
	<polygon id="XMLID_315_" style="fill:#490098;" points="307.5,149.9 314.1,159.8 313.5,167.3 295.4,167.3 294.9,152.9 	"/>
	<polygon id="XMLID_314_" style="fill:#130524;" points="313.5,167.3 313.5,168 295.4,168 295.4,167.3 	"/>
	<polygon id="XMLID_313_" style="fill:#490098;" points="313.5,168 312.4,180.4 295.8,177.5 295.4,168 	"/>
	<polygon id="XMLID_312_" style="fill:#130524;" points="312.4,180.4 312.4,181.3 295.8,178.3 295.8,177.5 	"/>
	<polygon id="XMLID_311_" style="fill:#490098;" points="312.4,181.3 311.9,187.1 296.1,187.1 295.8,178.3 	"/>
	<polygon id="XMLID_310_" style="fill:#130524;" points="311.9,187.1 311.3,194.2 296.2,189.2 296.1,187.1 	"/>
	<polygon id="XMLID_309_" style="fill:#130524;" points="311.3,194.2 311.2,195.2 296.3,190.2 296.2,189.2 	"/>
	<polygon id="XMLID_308_" style="fill:#130524;" points="311,206.3 305.6,214.6 298.9,210 307.2,202.5 	"/>
	<polygon id="XMLID_307_" style="fill:#FFAEA1;" points="295.5,263 293,263.9 289.2,275.9 275.1,275.9 275.1,263.6 288.8,258.8 
		283,247.7 306.1,256.2 308,259 	"/>
	<polygon id="XMLID_306_" style="fill:#130524;" points="307,149.2 307.5,149.9 294.9,152.9 294.9,152.1 	"/>
	<polygon id="XMLID_305_" style="fill:#130524;" points="302.6,142.6 307,149.2 294.9,152.1 294.5,142.6 	"/>
	<polygon id="XMLID_304_" style="fill:#490098;" points="275.3,300.6 280.7,302.7 284.9,289.6 285.1,288.9 289.2,275.9 303.8,275.9 
		306.4,279.9 293.7,282 296.9,311.2 289.5,311.2 289.5,332.9 267.3,332.9 261.9,295.6 	"/>
	<polygon id="XMLID_303_" style="fill:#490098;" points="292.1,235.8 306.1,256.2 283,247.7 288.8,258.8 275.1,263.6 275.1,239 
		275.1,233.8 286.9,228.1 	"/>
	<polygon id="XMLID_302_" style="fill:#130524;" points="305.6,214.6 305.2,215.4 298.2,210.7 298.9,210 	"/>
	<polygon id="XMLID_301_" style="fill:#130524;" points="305.2,215.4 296.2,229.4 292.6,225.4 297.5,223 297.1,211.7 298.2,210.7 	
		"/>
	<polygon id="XMLID_300_" style="fill:#130524;" points="295.5,263 303.8,275.9 289.2,275.9 293,263.9 	"/>
	<polygon id="XMLID_299_" style="fill:#130524;" points="295.1,131.5 302.6,142.6 294.5,142.6 294.2,133.6 294.1,131.1 	"/>
	<polygon id="XMLID_298_" style="fill:none;" points="267.3,332.9 289.5,332.9 289.5,311.2 296.9,311.2 301.9,356.5 88.6,356.5 
		123.8,307.7 135.4,307.7 141.3,333.3 183.7,302.3 183.7,326.9 194.7,313.4 215.3,288.2 215.3,276.5 215.3,273.7 215.3,255.3 
		208.2,258.7 196.5,264.3 183.8,257.9 168.4,250.2 184.9,225.2 194.6,225.2 194.6,218 199.5,211.5 202.1,214.1 211.6,208.6 
		221.6,202.8 232.8,202.8 236.3,195.5 246.2,201.8 249.4,203.9 262.3,212.1 275.1,220.4 275.1,226.4 261.1,240.7 243.2,249.3 
		219.2,248.9 221.4,259.9 225.7,280.8 249,272.7 249,276 282.6,288.7 254.8,286.9 275.3,296.9 275.3,300.6 261.9,295.6 	"/>
	<polygon id="XMLID_297_" style="fill:#130524;" points="298.9,210 298.2,210.7 297,209.9 297,208.7 	"/>
	<polygon id="XMLID_296_" style="fill:#130524;" points="298.2,210.7 297.1,211.7 297,209.9 	"/>
	<polygon id="XMLID_295_" style="fill:#130524;" points="297.1,211.7 297.5,223 292.6,225.4 287.8,220.2 	"/>
	<polygon id="XMLID_294_" style="fill:#FFAEA1;" points="297,209.9 297.1,211.7 287.8,220.2 284.6,216.7 286.9,214.4 283.6,200.7 	
		"/>
	<polygon id="XMLID_293_" style="fill:#130524;" points="297,208.7 297,209.9 283.6,200.7 283.3,199.4 	"/>
	<polygon id="XMLID_292_" style="fill:#FFAEA1;" points="296.3,190.2 297,208.7 283.3,199.4 280.3,187.1 287,187.1 	"/>
	<polygon id="XMLID_291_" style="fill:#130524;" points="296.2,189.2 296.3,190.2 287,187.1 289.8,187.1 	"/>
	<polygon id="XMLID_290_" style="fill:#130524;" points="296.1,187.1 296.2,189.2 289.8,187.1 	"/>
	<polygon id="XMLID_289_" style="fill:#130524;" points="295.8,178.3 296.1,187.1 289.8,187.1 279.5,183.7 277.4,175 	"/>
	<polygon id="XMLID_288_" style="fill:#130524;" points="295.8,177.5 295.8,178.3 277.4,175 277.3,174.2 	"/>
	<polygon id="XMLID_287_" style="fill:#130524;" points="295.4,168 295.8,177.5 277.3,174.2 275.8,168 	"/>
	<polygon id="XMLID_286_" style="fill:#130524;" points="291.8,225.8 295.8,230.1 292.1,235.8 286.9,228.1 	"/>
	<polygon id="XMLID_285_" style="fill:#130524;" points="295.4,167.3 295.4,168 275.8,168 275.6,167.3 	"/>
	<polygon id="XMLID_284_" style="fill:#130524;" points="294.9,152.9 295.4,167.3 275.6,167.3 273.4,158.1 	"/>
	<polygon id="XMLID_283_" style="fill:#130524;" points="294.9,152.1 294.9,152.9 273.4,158.1 273.2,157.4 	"/>
	<polygon id="XMLID_282_" style="fill:#130524;" points="271.9,142.6 294.5,142.6 294.9,152.1 273.2,157.4 272.4,153.9 254.1,146.4 
		254.1,143 259.3,144.2 271.9,136.4 	"/>
	<polygon id="XMLID_281_" style="fill:#5CE6C8;" points="294.2,133.6 294.5,142.6 271.9,142.6 271.9,136.4 275.5,134.1 282,134.1 
		284.2,129.2 	"/>
	<polygon id="XMLID_280_" style="fill:#130524;" points="294.1,131.1 294.2,133.6 294.2,133.6 284.2,129.2 286.2,124.6 288,124.6 
		288,128.6 	"/>
	<polygon id="XMLID_279_" style="fill:#130524;" points="287.8,220.2 292.6,225.4 291.8,225.8 287.2,220.7 	"/>
	<polygon id="XMLID_278_" style="fill:#130524;" points="287.2,220.7 291.8,225.8 286.9,228.1 283.9,223.7 	"/>
	<polygon id="XMLID_277_" style="fill:#490098;" points="290,93.3 290.4,100.9 283.9,115.3 283.9,124.6 281,124.6 281,124.6 
		275.5,119.7 275.5,104.9 286,97.4 284.5,90.9 	"/>
	<polygon id="XMLID_276_" style="fill:#FFAEA1;" points="288.9,74.9 290,93.3 284.5,90.9 280.8,75.7 281.9,70 	"/>
	<polygon id="XMLID_275_" style="fill:#130524;" points="289.8,187.1 287,187.1 279.7,184.6 279.5,183.7 	"/>
	<polygon id="XMLID_274_" style="fill:#130524;" points="275.1,275.9 289.2,275.9 285.1,288.9 282.6,288.7 249,276 249,272.7 
		275.1,263.6 	"/>
	<polygon id="XMLID_273_" style="fill:#130524;" points="288.1,60.5 288.9,74.9 281.9,70 283.9,60.5 	"/>
	<polygon id="XMLID_272_" style="fill:#490098;" points="287.4,47 288.1,60.5 283.9,60.5 284.8,56.3 273.1,49.9 279.3,42.2 	"/>
	<polygon id="XMLID_271_" style="fill:#130524;" points="284.6,216.7 287.8,220.2 287.2,220.7 284,217.3 	"/>
	<polygon id="XMLID_270_" style="fill:#FFAEA1;" points="284,217.3 287.2,220.7 283.9,223.7 286.9,228.1 275.1,233.8 275.1,226.4 	
		"/>
	<polygon id="XMLID_269_" style="fill:#130524;" points="287,187.1 280.3,187.1 279.7,184.6 	"/>
	<polygon id="XMLID_268_" style="fill:#130524;" points="283.6,200.7 286.9,214.4 284.6,216.7 269.3,200 273.1,193.6 	"/>
	<polygon id="XMLID_267_" style="fill:#130524;" points="283.9,124.6 286.2,124.6 284.2,129.2 275.5,125.3 275.5,119.7 281,124.6 
		281,124.6 	"/>
	<polygon id="XMLID_266_" style="fill:#130524;" points="284.5,90.9 286,97.4 275.5,104.9 275.5,101.5 260.8,97.7 260.8,92.7 
		257.3,93.5 257.3,84.9 269.7,97.5 278.7,88.3 	"/>
	<polygon id="XMLID_265_" style="fill:#FFAEA1;" points="284.9,289.6 280.7,302.7 275.3,300.6 275.3,296.9 254.8,286.9 282.6,288.7 
			"/>
	<polygon id="XMLID_264_" style="fill:#130524;" points="270.4,60.5 254.4,81.9 250.3,77.8 273.1,49.9 284.8,56.3 283.9,60.5 	"/>
	<polygon id="XMLID_263_" style="fill:#130524;" points="269.3,200 284.6,216.7 284,217.3 268.9,200.8 	"/>
	<polygon id="XMLID_262_" style="fill:#130524;" points="280.8,75.7 284.5,90.9 278.7,88.3 269.7,97.5 257.3,84.9 257.3,80.9 
		277.5,67 281.9,70 	"/>
	<polygon id="XMLID_261_" style="fill:#130524;" points="275.5,125.3 284.2,129.2 282,134.1 275.5,134.1 271.9,136.4 271.9,132.1 
		271.9,128.7 271.9,123.7 	"/>
	<polygon id="XMLID_260_" style="fill:#130524;" points="268.9,200.8 284,217.3 275.1,226.4 275.1,220.4 262.3,212.1 	"/>
	<polygon id="XMLID_259_" style="fill:#5CE6C8;" points="257.3,80.9 257.3,84.9 254.4,81.9 270.4,60.5 283.9,60.5 281.9,70 
		277.5,67 	"/>
	<polygon id="XMLID_258_" style="fill:#130524;" points="283.3,199.4 283.6,200.7 273.1,193.6 273.6,192.8 	"/>
	<polygon id="XMLID_257_" style="fill:#130524;" points="280.3,187.1 283.3,199.4 273.6,192.8 276.9,187.1 279.4,187.1 	"/>
	<polygon id="XMLID_256_" style="fill:#130524;" points="279.7,184.6 280.3,187.1 279.4,187.1 276.9,187.1 277.7,185.8 276,183.4 	
		"/>
	<polygon id="XMLID_255_" style="fill:#130524;" points="279.5,183.7 279.7,184.6 276,183.4 275.2,182.2 	"/>
	<polygon id="XMLID_254_" style="fill:#130524;" points="277.4,175 279.5,183.7 275.2,182.2 269,173.4 	"/>
	<polygon id="XMLID_253_" style="fill:#FFAEA1;" points="276,183.4 277.7,185.8 276.9,187.1 265.2,187.1 254.1,179.5 254.1,176 	"/>
	<polygon id="XMLID_252_" style="fill:#130524;" points="277.3,174.2 277.4,175 269,173.4 268.5,172.7 	"/>
	<polygon id="XMLID_251_" style="fill:#130524;" points="275.8,168 277.3,174.2 268.5,172.7 265.2,168 	"/>
	<polygon id="XMLID_250_" style="fill:#5CE6C8;" points="276.9,187.1 273.6,192.8 265.2,187.1 	"/>
	<polygon id="XMLID_249_" style="fill:#130524;" points="275.2,182.2 276,183.4 254.1,176 254.1,175.2 	"/>
	<polygon id="XMLID_248_" style="fill:#130524;" points="275.6,167.3 275.8,168 265.2,168 264.7,167.3 	"/>
	<polygon id="XMLID_247_" style="fill:#130524;" points="273.4,158.1 275.6,167.3 264.7,167.3 260.4,161.3 	"/>
	<polygon id="XMLID_246_" style="fill:#130524;" points="271.9,123.7 271.9,128.7 269.2,128.7 269.2,123.1 260.5,112.3 263.6,109.1 
		275.5,119.7 275.5,125.3 	"/>
	<polygon id="XMLID_245_" style="fill:#130524;" points="275.5,104.9 275.5,119.7 263.6,109.1 256.8,102.9 251,97.7 241.2,104.3 
		241.5,98.7 248.1,90.4 249.3,95.1 257.3,93.5 260.8,92.7 260.8,97.7 275.5,101.5 	"/>
	<polygon id="XMLID_244_" style="fill:#130524;" points="269,173.4 275.2,182.2 254.1,175.2 254.1,173.5 254.1,170.7 	"/>
	<polygon id="XMLID_243_" style="fill:#130524;" points="275.1,239 275.1,263.6 249,272.7 249,253 261.1,240.7 275.1,233.8 	"/>
	<polygon id="XMLID_242_" style="fill:#130524;" points="275.1,226.4 275.1,233.8 261.1,240.7 	"/>
	<polygon id="XMLID_241_" style="fill:#130524;" points="273.6,192.8 273.1,193.6 263.6,187.1 265.2,187.1 	"/>
	<polygon id="XMLID_240_" style="fill:#130524;" points="273.2,157.4 273.4,158.1 260.4,161.3 260,160.6 	"/>
	<polygon id="XMLID_239_" style="fill:#5CE6C8;" points="272.4,153.9 273.2,157.4 260,160.6 254.1,152.2 254.1,146.4 	"/>
	<polygon id="XMLID_238_" style="fill:#5CE6C8;" points="269.3,200 268.9,200.8 262.3,212.1 249.4,203.9 249.4,195.2 254.1,198.9 
		254.1,187.1 263.6,187.1 273.1,193.6 	"/>
	<polygon id="XMLID_237_" style="fill:#130524;" points="269.2,133.7 271.9,132.1 271.9,136.4 259.3,144.2 254.1,143 254.1,139.6 
		259.3,139.6 259.3,139.6 	"/>
	<polygon id="XMLID_236_" style="fill:#130524;" points="271.9,128.7 271.9,132.1 269.2,133.7 269.2,128.7 	"/>
	<polygon id="XMLID_235_" style="fill:#130524;" points="258.1,138.3 265.5,132.7 265.5,128.7 269.2,128.7 269.2,133.7 259.3,139.6 
		259.3,139.6 254.1,139.6 254.1,138.3 	"/>
	<polygon id="XMLID_234_" style="fill:#130524;" points="265.5,121.1 258.5,114.3 260.5,112.3 269.2,123.1 269.2,128.7 265.5,128.7 
		265.5,127.4 	"/>
	<polygon id="XMLID_233_" style="fill:#130524;" points="268.5,172.7 269,173.4 254.1,170.7 254.1,170.1 	"/>
	<polygon id="XMLID_232_" style="fill:#130524;" points="265.2,168 268.5,172.7 254.1,170.1 254.1,168 	"/>
	<polygon id="XMLID_231_" style="fill:#490098;" points="254.1,138.3 249.3,138.3 245.1,134.9 247.3,131.3 250.7,134.5 255.3,134.5 
		257.3,134.5 260.5,128.7 265.5,128.7 265.5,132.7 258.1,138.3 	"/>
	<polygon id="XMLID_230_" style="fill:#130524;" points="265.5,127.4 265.5,128.7 260.5,128.7 257.3,134.5 255.3,134.5 261.3,126.4 
		257.2,118.7 259.2,118.7 	"/>
	<polygon id="XMLID_229_" style="fill:#FFAEA1;" points="259.2,118.7 257.2,118.7 256.1,116.7 258.5,114.3 265.5,121.1 265.5,127.4 
			"/>
	<polygon id="XMLID_228_" style="fill:#130524;" points="265.2,187.1 263.6,187.1 254.1,180.6 254.1,179.5 	"/>
	<polygon id="XMLID_227_" style="fill:#130524;" points="264.7,167.3 265.2,168 254.1,168 254.1,167.3 	"/>
	<polygon id="XMLID_226_" style="fill:#130524;" points="260.4,161.3 264.7,167.3 254.1,167.3 254.1,162.8 	"/>
	<polygon id="XMLID_225_" style="fill:#130524;" points="263.6,109.1 260.5,112.3 252.9,102.9 256.8,102.9 	"/>
	<polygon id="XMLID_224_" style="fill:#130524;" points="263.6,187.1 254.1,187.1 254.1,180.6 	"/>
	<path id="XMLID_221_" style="fill:#130524;" d="M247.3,131.3l-9-8.6l2.3-2.7l6.5,3.3l2.5-4.5h7.7l4.1,7.7l-6.1,8.1h-4.6
		L247.3,131.3z M257.6,123.5v-1.8h-1.8v1.8H257.6z"/>
	<polygon id="XMLID_220_" style="fill:#130524;" points="261.1,240.7 249,253 249,249.4 243.2,249.3 	"/>
	<polygon id="XMLID_219_" style="fill:#130524;" points="234.1,127.8 232.6,129.5 231.4,128.3 231.4,119.2 231.4,115.1 245.3,102.9 
		252.9,102.9 260.5,112.3 258.5,114.3 256.2,112.1 247.1,112.1 245.6,113.9 241.6,118.7 240.6,119.9 238.3,122.7 	"/>
	<polygon id="XMLID_218_" style="fill:#130524;" points="260,160.6 260.4,161.3 254.1,162.8 254.1,162.1 	"/>
	<polygon id="XMLID_217_" style="fill:#130524;" points="254.1,152.2 260,160.6 254.1,162.1 	"/>
	<polygon id="XMLID_216_" style="fill:#490098;" points="258.5,114.3 256.1,116.7 257.2,118.7 249.6,118.7 251.2,115.8 245.6,113.9 
		247.1,112.1 256.2,112.1 	"/>
	<rect id="XMLID_215_" x="255.8" y="121.7" style="fill:#130524;" width="1.8" height="1.8"/>
	<polygon id="XMLID_214_" style="fill:#130524;" points="257.3,84.9 257.3,93.5 249.3,95.1 248.1,90.4 254.4,81.9 	"/>
	<polygon id="XMLID_213_" style="fill:#5CE6C8;" points="252.9,102.9 245.3,102.9 231.4,115.1 231.4,111.8 241.5,98.7 241.2,104.3 
		251,97.7 256.8,102.9 	"/>
	<polygon id="XMLID_212_" style="fill:#130524;" points="247.3,87.6 241.9,91.5 242.1,87.9 250.3,77.8 254.4,81.9 248.1,90.4 	"/>
	<polygon id="XMLID_211_" style="fill:#130524;" points="249.4,195.2 240,187.9 240.4,187.1 254.1,187.1 254.1,198.9 	"/>
	<polygon id="XMLID_210_" style="fill:#130524;" points="241.2,185.5 229.9,177.9 229.9,172.7 242.2,172.7 245.2,178.6 252.2,174.6 
		254.1,175.2 254.1,176 254.1,179.5 254.1,180.6 254.1,187.1 240.4,187.1 	"/>
	<polygon id="XMLID_209_" style="fill:#130524;" points="242.2,172.7 229.9,172.7 229.9,161.4 237.3,155 237.3,150.6 240.9,150.6 
		240.9,148.2 249.1,145.2 254.1,152.2 254.1,162.1 254.1,162.8 247.2,164.4 247.2,167.3 254.1,167.3 254.1,168 254.1,170.1 
		254.1,170.7 254.1,173.5 252.2,174.6 245.2,178.6 	"/>
	<polygon id="XMLID_208_" style="fill:#130524;" points="254.1,162.8 254.1,167.3 247.2,167.3 247.2,164.4 	"/>
	<polygon id="XMLID_207_" style="fill:#130524;" points="254.1,146.4 254.1,152.2 249.1,145.2 248.3,144 	"/>
	<polygon id="XMLID_206_" style="fill:#130524;" points="254.1,143 254.1,146.4 248.3,144 246.2,141 	"/>
	<polygon id="XMLID_205_" style="fill:#130524;" points="254.1,139.6 254.1,143 246.2,141 245.2,139.6 	"/>
	<polygon id="XMLID_204_" style="fill:#130524;" points="254.1,138.3 254.1,139.6 245.2,139.6 243.6,137.4 245.1,134.9 249.3,138.3 
			"/>
	<polygon id="XMLID_203_" style="fill:#130524;" points="251.2,115.8 249.6,118.7 241.6,118.7 245.6,113.9 	"/>
	<polygon id="XMLID_202_" style="fill:#490098;" points="249.6,118.7 247.1,123.2 240.6,119.9 241.6,118.7 	"/>
	<polygon id="XMLID_201_" style="fill:#130524;" points="249.4,195.2 249.4,203.9 246.2,201.8 246.2,197.2 238.4,191.2 240,187.9 	
		"/>
	<polygon id="XMLID_200_" style="fill:#130524;" points="245.5,142.9 248.3,144 249.1,145.2 240.9,148.2 240.9,142.8 239.8,141.6 
		234.8,136.2 236.5,133.6 	"/>
	<polygon id="XMLID_199_" style="fill:#130524;" points="249,253 249,272.7 225.7,280.8 221.4,259.9 224.1,258.6 236.9,265.3 	"/>
	<polygon id="XMLID_198_" style="fill:#5CE6C8;" points="249,249.4 249,253 236.9,265.3 224.1,258.6 243.2,249.3 	"/>
	<polygon id="XMLID_197_" style="fill:#130524;" points="246.2,141 248.3,144 245.5,142.9 236.5,133.6 237.7,131.8 244.6,139.6 
		245.2,139.6 	"/>
	<polygon id="XMLID_196_" style="fill:#130524;" points="247.3,87.6 248.1,90.4 241.5,98.7 241.9,91.5 	"/>
	<polygon id="XMLID_195_" style="fill:#64FFDA;" points="238.8,130 237.7,131.8 234.1,127.8 238.3,122.7 247.3,131.3 245.1,134.9 	
		"/>
	<polygon id="XMLID_194_" style="fill:#130524;" points="246.2,197.2 246.2,201.8 236.3,195.5 238.4,191.2 	"/>
	<polygon id="XMLID_193_" style="fill:#130524;" points="243.6,137.4 245.2,139.6 244.6,139.6 237.7,131.8 238.8,130 245.1,134.9 	
		"/>
	<polygon id="XMLID_192_" style="fill:#130524;" points="243.2,249.3 224.1,258.6 221.4,259.9 219.2,248.9 	"/>
	<polygon id="XMLID_191_" style="fill:#130524;" points="231.4,111.8 231.4,115.1 231.4,119.2 229.6,119.2 229.6,108.4 234.9,96.4 
		241.9,91.5 241.5,98.7 	"/>
	<polygon id="XMLID_190_" style="fill:#130524;" points="229.9,177.9 241.2,185.5 240.4,187.1 239,187.1 234.8,183.8 230.1,183.8 
		228.2,180.5 223.9,180.5 223.9,172.7 229.9,172.7 	"/>
	<polygon id="XMLID_189_" style="fill:#130524;" points="237.3,150.6 237.3,155 229.9,161.4 229.9,152.1 240.9,148.2 240.9,150.6 	
		"/>
	<polygon id="XMLID_188_" style="fill:#130524;" points="205,141.6 199.1,147.7 201.9,151.8 206.2,146.5 207.2,146.5 207.2,147.2 
		213.2,149.8 213.2,156.6 217.3,162.8 219.3,162.1 221.2,161.5 220,158.8 222,157.8 222.5,162.3 227.9,159.9 227.3,155.3 226,145.3 
		232.4,141.2 235.7,144.9 237.6,143.4 239.8,141.6 240.9,142.8 240.9,148.2 229.9,152.1 229.9,161.4 225.6,165.1 220.1,165.1 
		215.2,165.1 209.6,158.2 211.7,152.8 206.6,149.6 203,156.7 192.9,153.5 192.9,151.7 194.2,150.5 198.2,152.1 198.2,144.5 
		204.4,138.2 207.2,138.2 207.2,141.6 	"/>
	<polygon id="XMLID_187_" style="fill:#130524;" points="240,187.9 238.4,191.2 233.2,187.1 239,187.1 	"/>
	<polygon id="XMLID_186_" style="fill:#130524;" points="233.7,137.9 234.8,136.2 239.8,141.6 237.6,143.4 237.5,143.3 232.4,137.9 
			"/>
	<polygon id="XMLID_185_" style="fill:#130524;" points="233.2,187.1 232,187.1 230.1,183.8 234.8,183.8 239,187.1 	"/>
	<polygon id="XMLID_184_" style="fill:#130524;" points="220.1,187.1 232,187.1 233.2,187.1 238.4,191.2 236.3,195.5 231,192.1 
		211.6,199.3 211.6,201.2 208.3,199.9 218.1,187.1 	"/>
	<polygon id="XMLID_183_" style="fill:#130524;" points="238.2,88.9 234.9,96.4 229.6,100.2 229.6,91.9 227.5,89.3 229.2,85.8 	"/>
	<polygon id="XMLID_182_" style="fill:#130524;" points="234.1,127.8 237.7,131.8 236.5,133.6 232.6,129.5 	"/>
	<polygon id="XMLID_181_" style="fill:#FFAEA1;" points="226.8,143 225.6,140.4 228.1,137.9 232.4,137.9 237.5,143.3 237.6,143.4 
		235.7,144.9 232.4,141.2 226,145.3 227.3,155.3 222,157.8 220.9,147.1 	"/>
	<polygon id="XMLID_180_" style="fill:#130524;" points="232.6,129.5 236.5,133.6 234.8,136.2 233.1,134.4 221.5,121.8 221.1,118 
		222.7,118 223,119.5 229.6,126.4 231.4,128.3 	"/>
	<polygon id="XMLID_179_" style="fill:#490098;" points="211.6,201.2 211.6,199.3 231,192.1 236.3,195.5 232.8,202.8 221.6,202.8 
		211.6,208.6 	"/>
	<polygon id="XMLID_178_" style="fill:#130524;" points="234.9,96.4 229.6,108.4 229.6,100.2 	"/>
	<polygon id="XMLID_177_" style="fill:#130524;" points="232.4,137.9 228.1,137.9 225.6,140.4 223.8,136.4 226.1,134.4 233.1,134.4 
		234.8,136.2 233.7,137.9 	"/>
	<polygon id="XMLID_176_" style="fill:#130524;" points="199.3,122.3 208.4,117.1 187.7,106.2 187.7,99.8 190.6,92.6 187.7,91.3 
		187.7,87.1 201.9,97.2 198.1,85.4 203.4,89.7 211,85.1 215.3,118 221.1,118 221.5,121.8 233.1,134.4 226.1,134.4 223.8,136.4 
		220.9,130.2 207.2,130.2 195.4,130.2 195.4,124.5 	"/>
	<polygon id="XMLID_175_" style="fill:#130524;" points="230.1,183.8 232,187.1 220.1,187.1 220.1,182.5 222,180.5 223.9,180.5 
		228.2,180.5 	"/>
	<polygon id="XMLID_174_" style="fill:#130524;" points="231.4,119.2 231.4,128.3 229.6,126.4 229.6,119.2 	"/>
	<polygon id="XMLID_173_" style="fill:#FFAEA1;" points="225.6,165.1 229.9,161.4 229.9,172.7 223.9,172.7 223.9,166.5 	"/>
	<polygon id="XMLID_172_" style="fill:#130524;" points="222.7,118 220.6,105.7 226.1,103.6 228.1,119.2 229.6,119.2 229.6,126.4 
		223,119.5 	"/>
	<polygon id="XMLID_171_" style="fill:#130524;" points="229.6,100.2 229.6,108.4 229.6,119.2 228.1,119.2 226.1,103.6 220.6,105.7 
		222.7,118 221.1,118 218.5,92.5 224.4,95.4 227.5,89.3 229.6,91.9 	"/>
	<polygon id="XMLID_170_" style="fill:#130524;" points="229.2,85.8 227.5,89.3 223.1,83.7 	"/>
	<polygon id="XMLID_169_" style="fill:#64FFDA;" points="227.3,155.3 227.9,159.9 222.5,162.3 222,157.8 	"/>
	<polygon id="XMLID_168_" style="fill:#130524;" points="220.9,147.1 219.3,148.1 215.4,150.8 213.2,149.8 213.2,146.5 207.2,146.5 
		207.2,141.6 224.5,141.6 225.6,140.4 226.8,143 	"/>
	<polygon id="XMLID_167_" style="fill:#130524;" points="223.8,136.4 225.6,140.4 224.5,141.6 207.2,141.6 207.2,138.2 221.7,138.2 
			"/>
	<polygon id="XMLID_166_" style="fill:#130524;" points="223.9,166.5 223.9,172.7 220.6,172.7 220.1,173.6 220.1,165.1 225.6,165.1 
			"/>
	<polygon id="XMLID_165_" style="fill:#130524;" points="223.9,172.7 223.9,180.5 222,180.5 220.1,182.5 220.1,173.6 220.6,172.7 	
		"/>
	<polygon id="XMLID_164_" style="fill:#130524;" points="220.9,130.2 223.8,136.4 221.7,138.2 207.2,138.2 207.2,130.2 	"/>
	<polygon id="XMLID_163_" style="fill:#490098;" points="220.9,147.1 222,157.8 220,158.8 221.2,161.5 219.3,162.1 219.3,148.1 	"/>
	<polygon id="XMLID_162_" style="fill:#490098;" points="218.5,92.5 221.1,118 215.3,118 211,85.1 212.5,84.1 213.4,89.9 	"/>
	<polygon id="XMLID_161_" style="fill:#130524;" points="211.6,191.1 220.1,182.5 220.1,187.1 218.1,187.1 208.3,199.9 203,197.8 
		211.6,184.7 	"/>
	<polygon id="XMLID_160_" style="fill:#130524;" points="216.5,179.3 220.1,173.6 220.1,182.5 211.6,191.1 211.6,184.7 215.2,179.3 
			"/>
	<polygon id="XMLID_159_" style="fill:#64FFDA;" points="215.2,179.3 214.5,179.3 211.6,179.3 211.6,173.3 211.6,171.9 211.6,161.9 
		204.3,161.9 204.3,157.1 208.7,157.1 209.6,158.2 215.2,165.1 220.1,165.1 220.1,173.6 216.5,179.3 	"/>
	<polygon id="XMLID_158_" style="fill:#FFAEA1;" points="219.3,148.1 219.3,162.1 217.3,162.8 213.2,156.6 213.2,149.8 215.4,150.8 
			"/>
	<polygon id="XMLID_157_" style="fill:#130524;" points="215.3,276.5 215.3,288.2 194.7,313.4 199.2,291.2 190.5,286.1 	"/>
	<polygon id="XMLID_156_" style="fill:#130524;" points="202.9,272.6 204.6,268.3 215.3,273.7 215.3,276.5 190.5,286.1 165.1,295.9 
		162.1,266.7 	"/>
	<polygon id="XMLID_155_" style="fill:#130524;" points="215.3,255.3 215.3,273.7 204.6,268.3 208.2,258.7 	"/>
	<polygon id="XMLID_154_" style="fill:#130524;" points="215.2,179.3 211.6,184.7 211.6,183.6 214.5,179.3 	"/>
	<polygon id="XMLID_153_" style="fill:#130524;" points="214.5,179.3 211.6,183.6 211.6,179.3 	"/>
	<polygon id="XMLID_152_" style="fill:#130524;" points="213.2,146.5 213.2,149.8 207.2,147.2 207.2,146.5 	"/>
	<polygon id="XMLID_151_" style="fill:#490098;" points="204.3,157.1 192.9,157.1 192.9,153.5 203,156.7 206.6,149.6 211.7,152.8 
		209.6,158.2 208.7,157.1 	"/>
	<polygon id="XMLID_150_" style="fill:#130524;" points="211.6,201.2 211.6,208.6 202.1,214.1 199.5,211.5 208.3,199.9 	"/>
	<polygon id="XMLID_149_" style="fill:#130524;" points="211.6,183.6 211.6,184.7 203,197.8 202.2,197.5 	"/>
	<polygon id="XMLID_148_" style="fill:#FFAEA1;" points="211.6,179.3 211.6,183.6 202.2,197.5 189,192.3 204.5,179.3 	"/>
	<polygon id="XMLID_147_" style="fill:#130524;" points="211.6,173.3 211.6,179.3 204.5,179.3 	"/>
	<polygon id="XMLID_146_" style="fill:#130524;" points="211.6,171.9 211.6,173.3 204.5,179.3 202.7,179.3 	"/>
	<polygon id="XMLID_145_" style="fill:#130524;" points="197.9,177.6 197.9,176.6 197.9,168.5 197.9,167.8 175.7,177.6 175.7,176 
		175.7,174.3 184.3,171.7 177,159.6 184.7,153.6 184.7,151 190.2,152.7 190.2,157.1 192.9,157.1 204.3,157.1 204.3,161.9 
		211.6,161.9 211.6,171.9 202.7,179.3 197.9,179.3 	"/>
	<polygon id="XMLID_144_" style="fill:#5CE6C8;" points="210.6,82.2 211,85.1 203.4,89.7 198.1,85.4 201.9,97.2 187.7,87.1 
		187.7,86.6 194.3,88.4 198.9,82.3 202.4,86.7 	"/>
	<polygon id="XMLID_143_" style="fill:#130524;" points="208.4,117.1 199.3,122.3 184.2,108.5 187.7,99.8 187.7,106.2 	"/>
	<polygon id="XMLID_142_" style="fill:#130524;" points="208.3,199.9 199.5,211.5 196.2,208.2 203,197.8 	"/>
	<polygon id="XMLID_141_" style="fill:#130524;" points="208.2,258.7 204.6,268.3 196.5,264.3 	"/>
	<polygon id="XMLID_140_" style="fill:#5CE6C8;" points="207.2,141.6 207.2,146.5 206.2,146.5 201.9,151.8 199.1,147.7 205,141.6 	
		"/>
	<polygon id="XMLID_139_" style="fill:#5CE6C8;" points="198.2,144.5 198.2,152.1 194.2,150.5 192.9,151.7 192.9,153.5 190.2,152.7 
		190.2,137 195.4,137 195.4,130.2 207.2,130.2 207.2,138.2 204.4,138.2 	"/>
	<polygon id="XMLID_138_" style="fill:#5CE6C8;" points="204.6,268.3 202.9,272.6 162.1,266.7 161.4,260.8 168.4,250.2 183.8,257.9 
		189.7,267.5 196.5,264.3 	"/>
	<polygon id="XMLID_137_" style="fill:#130524;" points="204.5,179.3 189,192.3 187.7,191.8 202.7,179.3 	"/>
	<polygon id="XMLID_136_" style="fill:#130524;" points="203,197.8 196.2,208.2 195.5,207.5 202.2,197.5 	"/>
	<polygon id="XMLID_135_" style="fill:#130524;" points="202.7,179.3 187.7,191.8 179.3,188.6 197.9,177.6 197.9,179.3 	"/>
	<polygon id="XMLID_134_" style="fill:#5CE6C8;" points="195.5,207.5 183.6,225.2 173.9,225.2 170,208.2 189,192.3 202.2,197.5 	"/>
	<polygon id="XMLID_133_" style="fill:#130524;" points="199.5,211.5 194.6,218 194.6,225.2 184.9,225.2 196.2,208.2 	"/>
	<polygon id="XMLID_132_" style="fill:#130524;" points="195.4,124.5 195.4,130.2 190.2,130.2 190.2,121.8 179.9,107.4 174.2,99.4 
		175.2,95.7 181.9,100.6 179.8,87.7 187.7,91.3 187.7,99.8 184.2,108.5 199.3,122.3 	"/>
	<polygon id="XMLID_131_" style="fill:#490098;" points="183.7,302.3 141.3,333.3 135.4,307.7 165.4,307.7 166.3,307.7 165.1,295.9 
		190.5,286.1 199.2,291.2 194.7,313.4 183.7,326.9 	"/>
	<polygon id="XMLID_130_" style="fill:#130524;" points="197.9,176.6 197.9,177.6 179.3,188.6 178.3,188.2 	"/>
	<polygon id="XMLID_129_" style="fill:#130524;" points="197.9,168.5 197.9,176.6 178.3,188.2 175.7,187.2 175.7,178.4 	"/>
	<polygon id="XMLID_128_" style="fill:#130524;" points="197.9,167.8 197.9,168.5 175.7,178.4 175.7,177.6 	"/>
	<polygon id="XMLID_127_" style="fill:#130524;" points="196.5,264.3 189.7,267.5 183.8,257.9 	"/>
	<polygon id="XMLID_126_" style="fill:#130524;" points="196.2,208.2 184.9,225.2 183.6,225.2 195.5,207.5 	"/>
	<rect id="XMLID_125_" x="190.2" y="130.2" style="fill:#5CE6C8;" width="5.2" height="6.8"/>
	<polygon id="XMLID_124_" style="fill:#130524;" points="192.9,153.5 192.9,157.1 190.2,157.1 190.2,152.7 	"/>
	<polygon id="XMLID_123_" style="fill:#5CE6C8;" points="190.6,92.6 187.7,99.8 187.7,91.3 	"/>
	<polygon id="XMLID_122_" style="fill:#130524;" points="184.7,146.9 184.7,141.5 184.7,137.8 184.7,134.6 186.3,137 190.2,137 
		190.2,152.7 184.7,151 	"/>
	<polygon id="XMLID_121_" style="fill:#130524;" points="190.2,130.2 190.2,137 186.3,137 184.7,134.6 173.4,116.6 179.9,107.4 
		190.2,121.8 	"/>
	<polygon id="XMLID_120_" style="fill:#130524;" points="189,192.3 170,208.2 169.7,206.8 187.7,191.8 	"/>
	<polygon id="XMLID_119_" style="fill:#130524;" points="187.7,191.8 169.7,206.8 167.1,195.7 179.3,188.6 	"/>
	<polygon id="XMLID_118_" style="fill:#130524;" points="184.9,225.2 168.4,250.2 167.1,249.6 183.6,225.2 	"/>
	<polygon id="XMLID_117_" style="fill:#130524;" points="184.7,151 184.7,153.6 177,159.6 175.6,157.1 171,157.1 178,151.9 
		184.7,146.9 	"/>
	<polygon id="XMLID_116_" style="fill:#130524;" points="184.7,141.5 184.7,146.9 178,151.9 175.2,148.4 179.5,145.4 179.5,141.5 	
		"/>
	<polygon id="XMLID_115_" style="fill:#130524;" points="184.7,137.8 184.7,141.5 179.5,141.5 179.5,132.5 	"/>
	<polygon id="XMLID_114_" style="fill:#5CE6C8;" points="179.5,132.5 165.9,118.6 151.2,118.6 151.2,115.8 167.1,115.8 152.4,101.6 
		152.2,94.7 155.2,102 157.4,99.9 171.8,118.9 173.4,116.6 184.7,134.6 184.7,137.8 	"/>
	<polygon id="XMLID_113_" style="fill:#490098;" points="177,159.6 184.3,171.7 175.7,174.3 175.7,160.6 	"/>
	<polygon id="XMLID_112_" style="fill:#130524;" points="159.8,229.6 159.8,216.8 170,208.2 173.9,225.2 183.6,225.2 167.1,249.6 
		159.8,245.9 	"/>
	<polygon id="XMLID_111_" style="fill:#130524;" points="178.5,93.9 174.9,85.5 179.8,87.7 181.9,100.6 175.2,95.7 174.2,99.4 
		170.8,94.6 	"/>
	<polygon id="XMLID_110_" style="fill:#130524;" points="174.2,99.4 179.9,107.4 173.4,116.6 166,104.7 166,100.7 172.5,105.7 	"/>
	<polygon id="XMLID_109_" style="fill:#130524;" points="179.5,141.5 179.5,145.4 175.2,148.4 172.7,145.4 175.7,143.2 175.7,141.5 
			"/>
	<polygon id="XMLID_108_" style="fill:#130524;" points="164.6,126.9 151.2,126.9 151.2,118.6 165.9,118.6 179.5,132.5 179.5,141.5 
		175.7,141.5 175.7,137.1 173.2,134.8 170.9,132.6 165.5,127.6 	"/>
	<polygon id="XMLID_107_" style="fill:#130524;" points="179.3,188.6 167.1,195.7 166.9,194.9 178.3,188.2 	"/>
	<polygon id="XMLID_106_" style="fill:#130524;" points="175.7,187.2 178.3,188.2 166.9,194.9 164.3,183.6 175.7,178.4 	"/>
	<polygon id="XMLID_105_" style="fill:#130524;" points="132.8,145.8 140.7,152 145.7,155.9 163.8,155.9 175.2,148.4 178,151.9 
		171,157.1 133.3,157.1 130.8,157.1 128.5,152.3 130.5,152.2 132.1,145.2 	"/>
	<polygon id="XMLID_104_" style="fill:#130524;" points="175.6,157.1 177,159.6 175.7,160.6 175.7,174.3 163,178.1 162.3,174.9 
		159.8,174.9 159.8,165.5 171,157.1 	"/>
	<polygon id="XMLID_103_" style="fill:#130524;" points="175.7,177.6 175.7,178.4 164.3,183.6 164.1,182.8 	"/>
	<polygon id="XMLID_102_" style="fill:#130524;" points="175.7,176 175.7,177.6 164.1,182.8 163.4,179.6 	"/>
	<polygon id="XMLID_101_" style="fill:#130524;" points="175.7,174.3 175.7,176 163.4,179.6 163,178.1 	"/>
	<polygon id="XMLID_100_" style="fill:#5CE6C8;" points="167.6,139.2 165.5,141.4 165.5,132.7 170.9,132.6 173.2,134.8 173.2,141.5 
		175.7,141.5 175.7,143.2 172.7,145.4 	"/>
	<polygon id="XMLID_99_" style="fill:#130524;" points="175.7,137.1 175.7,141.5 173.2,141.5 173.2,134.8 	"/>
	<polygon id="XMLID_98_" style="fill:#130524;" points="172.7,145.4 175.2,148.4 163.8,155.9 145.7,155.9 140.7,152 140.7,150.3 
		149.4,155.2 159.5,155.2 	"/>
	<polygon id="XMLID_97_" style="fill:#130524;" points="166,104.7 173.4,116.6 171.8,118.9 157.4,99.9 160.7,96.7 166,100.7 	"/>
	<polygon id="XMLID_96_" style="fill:#490098;" points="157.1,149.9 165.5,141.4 167.6,139.2 172.7,145.4 159.5,155.2 149.4,155.2 
		140.7,150.3 140.7,142.6 145,142.6 145,143.3 151.4,149.9 	"/>
	<polygon id="XMLID_95_" style="fill:#FFAEA1;" points="159.8,165.5 159.8,174.9 133.3,174.9 133.3,157.1 171,157.1 	"/>
	<polygon id="XMLID_94_" style="fill:#130524;" points="170.9,132.6 165.5,132.7 165.5,127.6 	"/>
	<polygon id="XMLID_93_" style="fill:#130524;" points="169.7,206.8 170,208.2 159.8,216.8 159.8,215 	"/>
	<polygon id="XMLID_92_" style="fill:#130524;" points="167.1,195.7 169.7,206.8 159.8,215 159.8,200.1 	"/>
	<polygon id="XMLID_91_" style="fill:#130524;" points="168.4,250.2 161.4,260.8 162.1,266.7 161.3,266.6 160.5,259.4 167.1,249.6 	
		"/>
	<polygon id="XMLID_90_" style="fill:#FFAEA1;" points="160.5,259.4 161.3,266.6 142.1,263.8 136.3,244.9 139.1,234.1 144.5,229.6 
		159.8,229.6 159.8,245.9 167.1,249.6 	"/>
	<polygon id="XMLID_89_" style="fill:#130524;" points="166.9,194.9 167.1,195.7 159.8,200.1 159.8,199 	"/>
	<polygon id="XMLID_88_" style="fill:#130524;" points="167.1,115.8 151.2,115.8 151.2,114.6 151,114.6 136.5,109.4 138.7,105.7 
		145.7,110.4 142.3,103.3 158.7,111.2 152.5,106.5 152.4,101.6 	"/>
	<polygon id="XMLID_87_" style="fill:#130524;" points="164.3,183.6 166.9,194.9 159.8,199 159.8,185.6 	"/>
	<polygon id="XMLID_86_" style="fill:#130524;" points="165.1,295.9 166.3,307.7 165.4,307.7 164.2,296.2 	"/>
	<polygon id="XMLID_85_" style="fill:#130524;" points="166,91.7 166,100.7 160.7,96.7 	"/>
	<polygon id="XMLID_84_" style="fill:#130524;" points="159.5,136.4 159.5,132.7 165.5,132.7 165.5,141.4 157.1,149.9 151.4,149.9 
		145,143.3 145,142.6 145,137.6 149.8,132.7 151.2,132.7 151.2,136.4 	"/>
	<polygon id="XMLID_83_" style="fill:#130524;" points="165.5,127.6 165.5,132.7 159.5,132.7 159.5,128.4 151.2,128.4 151.2,126.9 
		164.6,126.9 	"/>
	<polygon id="XMLID_82_" style="fill:#FFAEA1;" points="136.7,279 150.5,274.4 148.9,302.1 164.2,296.2 165.4,307.7 135.4,307.7 
		132.6,295.4 129.5,281.4 	"/>
	<polygon id="XMLID_81_" style="fill:#130524;" points="162.1,266.7 165.1,295.9 164.2,296.2 161.3,266.6 	"/>
	<polygon id="XMLID_80_" style="fill:#130524;" points="164.1,182.8 164.3,183.6 159.8,185.6 159.8,184.7 	"/>
	<polygon id="XMLID_79_" style="fill:#130524;" points="161.3,266.6 164.2,296.2 148.9,302.1 150.5,274.4 136.7,279 131.2,265.2 
		136.3,244.9 142.1,263.8 	"/>
	<polygon id="XMLID_78_" style="fill:#130524;" points="163.4,179.6 164.1,182.8 159.8,184.7 159.8,180.7 	"/>
	<polygon id="XMLID_77_" style="fill:#130524;" points="163,178.1 163.4,179.6 159.8,180.7 159.8,179 	"/>
	<polygon id="XMLID_76_" style="fill:#130524;" points="162.3,174.9 163,178.1 159.8,179 159.8,174.9 	"/>
	<polygon id="XMLID_75_" style="fill:#5CE6C8;" points="159.8,216.8 159.8,229.6 144.5,229.6 	"/>
	<polygon id="XMLID_74_" style="fill:#130524;" points="159.8,215 159.8,216.8 144.5,229.6 142.3,229.6 	"/>
	<polygon id="XMLID_73_" style="fill:#490098;" points="159.8,200.1 159.8,215 142.3,229.6 131.7,229.6 128.4,218.7 	"/>
	<polygon id="XMLID_72_" style="fill:#130524;" points="159.8,199 159.8,200.1 128.4,218.7 128.1,217.7 	"/>
	<polygon id="XMLID_71_" style="fill:#490098;" points="159.8,185.6 159.8,199 128.1,217.7 125.6,209.5 125.9,200.8 	"/>
	<polygon id="XMLID_70_" style="fill:#130524;" points="159.8,184.7 159.8,185.6 125.9,200.8 126,199.7 	"/>
	<polygon id="XMLID_69_" style="fill:#490098;" points="159.8,180.7 159.8,184.7 126,199.7 126.2,194.7 121.7,196.6 120.4,192.2 	
		"/>
	<polygon id="XMLID_68_" style="fill:#130524;" points="159.8,179 159.8,180.7 120.4,192.2 120,190.9 	"/>
	<polygon id="XMLID_67_" style="fill:#130524;" points="133.3,174.9 159.8,174.9 159.8,179 120,190.9 113.7,170.2 119.2,170.2 
		126,157.1 130.8,157.1 133.3,157.1 	"/>
	<polygon id="XMLID_66_" style="fill:#130524;" points="159.5,132.7 159.5,136.4 151.2,136.4 151.2,132.7 	"/>
	<polygon id="XMLID_65_" style="fill:#490098;" points="159.5,128.4 159.5,132.7 151.2,132.7 151.2,128.4 	"/>
	<polygon id="XMLID_64_" style="fill:#FFAEA1;" points="149.8,132.7 145,137.6 143.9,138.7 141.6,136.4 147.2,128.4 151.2,128.4 
		151.2,132.7 	"/>
	<polygon id="XMLID_63_" style="fill:#130524;" points="151.2,126.9 151.2,128.4 147.2,128.4 148.3,126.9 	"/>
	<polygon id="XMLID_62_" style="fill:#130524;" points="148.3,126.9 147.2,128.4 141.6,136.4 137.8,141.8 139.4,149.6 140.7,150.3 
		140.7,152 132.8,145.8 145.7,118.6 151.2,118.6 151.2,126.9 	"/>
	<polygon id="XMLID_61_" style="fill:#FFAEA1;" points="151.2,115.8 151.2,118.6 145.7,118.6 132.8,145.8 132.1,145.2 134.7,133.7 
		138.3,127.3 136.6,125.6 138.8,115.8 	"/>
	<polygon id="XMLID_60_" style="fill:#130524;" points="136.6,125.6 134.7,133.7 127.8,146.1 118.8,142.4 119.8,139.8 116.9,134.9 
		113.6,129.5 123.3,131.3 122.5,125.5 127.1,125.5 129.3,121.7 131.1,118.8 133.7,114.3 136.5,109.4 151,114.6 151.2,114.6 
		151.2,115.8 138.8,115.8 	"/>
	<polygon id="XMLID_59_" style="fill:#130524;" points="143.9,138.7 145,137.6 145,142.6 140.7,142.6 140.7,150.3 139.4,149.6 
		137.8,141.8 141.6,136.4 	"/>
	<polygon id="XMLID_58_" style="fill:#130524;" points="144.5,229.6 139.1,234.1 136.3,244.9 135.6,242.5 138.1,233.1 142.3,229.6 	
		"/>
	<polygon id="XMLID_57_" style="fill:#130524;" points="142.3,229.6 138.1,233.1 135.6,242.5 131.7,229.6 	"/>
	<polygon id="XMLID_56_" style="fill:#5CE6C8;" points="138.7,105.7 136.5,109.4 128.6,106.7 132.2,106.7 133.8,106.7 132.6,101.6 	
		"/>
	<polygon id="XMLID_55_" style="fill:#5CE6C8;" points="138.3,127.3 134.7,133.7 136.6,125.6 	"/>
	<polygon id="XMLID_54_" style="fill:#130524;" points="131.2,265.2 136.7,279 129.5,281.4 128.1,275.7 	"/>
	<polygon id="XMLID_53_" style="fill:#5CE6C8;" points="136.5,109.4 133.7,114.3 127,114.3 127,102.6 132.2,106.7 128.6,106.7 	"/>
	<polygon id="XMLID_52_" style="fill:#130524;" points="135.6,242.5 136.3,244.9 131.2,265.2 130.3,262.9 	"/>
	<polygon id="XMLID_51_" style="fill:#130524;" points="131.7,229.6 135.6,242.5 130.3,262.9 121.4,240.8 116.2,243 116.2,225.9 
		125.2,220.6 124.8,229.6 	"/>
	<polygon id="XMLID_50_" style="fill:#130524;" points="132.6,295.4 135.4,307.7 123.8,307.7 	"/>
	<polygon id="XMLID_49_" style="fill:#130524;" points="132.1,145.2 130.5,152.2 128.5,152.3 126.8,149 110,158.2 107.5,149.9 
		111,149.9 116,149.9 118.8,142.4 127.8,146.1 134.7,133.7 	"/>
	<polygon id="XMLID_48_" style="fill:#130524;" points="133.7,114.3 131.1,118.8 126.6,118.8 111,101.9 111,90.3 127,102.6 
		127,114.3 	"/>
	<polygon id="XMLID_47_" style="fill:none;" points="105.5,254.6 122.7,251.6 127.6,273.1 128.1,275.7 129.5,281.4 132.6,295.4 
		123.8,307.7 75.6,307.7 75.6,193.5 94.4,193.5 93.7,198.8 93.5,200 92.7,205.7 98.9,211.7 99.8,212.6 105.8,218.3 104,225.6 
		102.2,233 101.9,234.4 100.3,240.7 111.4,240.7 	"/>
	<polygon id="XMLID_46_" style="fill:#130524;" points="128.4,218.7 131.7,229.6 124.8,229.6 125.2,220.6 	"/>
	<polygon id="XMLID_45_" style="fill:#130524;" points="130.3,262.9 131.2,265.2 128.1,275.7 127.6,273.1 	"/>
	<polygon id="XMLID_44_" style="fill:#130524;" points="131.1,118.8 129.3,121.7 126.6,118.8 	"/>
	<polygon id="XMLID_43_" style="fill:#130524;" points="126,157.1 119.2,170.2 113.7,170.2 111.9,164.3 123.4,152.6 128.5,152.3 
		130.8,157.1 	"/>
	<polygon id="XMLID_42_" style="fill:#490098;" points="121.4,240.8 130.3,262.9 127.6,273.1 122.7,251.6 105.5,254.6 111.4,240.7 
		100.3,240.7 101.9,234.4 116.2,225.9 116.2,243 	"/>
	<polygon id="XMLID_41_" style="fill:#130524;" points="129.3,121.7 127.1,125.5 122.5,125.5 123.3,131.3 113.6,129.5 116.9,134.9 
		111,138.2 111,118.8 126.6,118.8 	"/>
	<polygon id="XMLID_40_" style="fill:#130524;" points="126.8,149 128.5,152.3 123.4,152.6 111.9,164.3 110,158.2 	"/>
	<polygon id="XMLID_39_" style="fill:#130524;" points="128.1,217.7 128.4,218.7 125.2,220.6 125.2,219.4 	"/>
	<polygon id="XMLID_38_" style="fill:#130524;" points="125.6,209.5 128.1,217.7 125.2,219.4 	"/>
	<polygon id="XMLID_37_" style="fill:#130524;" points="111,101.9 126.6,118.8 111,118.8 	"/>
	<polygon id="XMLID_36_" style="fill:#130524;" points="126.2,194.7 126,199.7 123,201 121.7,196.6 	"/>
	<polygon id="XMLID_35_" style="fill:#130524;" points="126,199.7 125.9,200.8 123.3,202 123,201 	"/>
	<polygon id="XMLID_34_" style="fill:#130524;" points="125.9,200.8 125.6,209.5 123.3,202 	"/>
	<polygon id="XMLID_33_" style="fill:#130524;" points="123.3,202 125.6,209.5 125.2,219.4 116.2,224.7 116.2,221.4 116.2,219.8 
		121.8,212.3 112.1,207 	"/>
	<polygon id="XMLID_32_" style="fill:#130524;" points="125.2,219.4 125.2,220.6 116.2,225.9 116.2,224.7 	"/>
	<polygon id="XMLID_31_" style="fill:none;" points="123.8,307.7 88.6,356.5 75.6,356.5 75.6,307.7 	"/>
	<polygon id="XMLID_30_" style="fill:#130524;" points="123,201 123.3,202 112.1,207 110.9,206.4 	"/>
	<polygon id="XMLID_29_" style="fill:#130524;" points="109,205.4 108.4,207.5 98.9,211.7 92.7,205.7 93.5,200 109.9,195.3 
		109.9,201.3 121.7,196.6 123,201 110.9,206.4 	"/>
	<polygon id="XMLID_28_" style="fill:#130524;" points="121.8,212.3 116.2,219.8 116.2,216.8 109.3,221.7 105.8,218.3 108.1,208.8 
		112.1,207 	"/>
	<polygon id="XMLID_27_" style="fill:#130524;" points="120.4,192.2 121.7,196.6 109.9,201.3 109.9,195.3 	"/>
	<polygon id="XMLID_26_" style="fill:#130524;" points="120,190.9 120.4,192.2 109.9,195.3 109.9,194 	"/>
	<polygon id="XMLID_25_" style="fill:#5CE6C8;" points="113.7,170.2 120,190.9 109.9,194 109.9,187.7 109.9,170.2 	"/>
	<polygon id="XMLID_24_" style="fill:#130524;" points="118.8,142.4 116,149.9 111,149.9 111,138.2 116.9,134.9 119.8,139.8 	"/>
	<polygon id="XMLID_23_" style="fill:#130524;" points="116.2,221.4 116.2,224.7 102.2,233 104,225.6 109.3,221.7 112.5,224.8 
		116.2,219.8 	"/>
	<polygon id="XMLID_22_" style="fill:#FFAEA1;" points="116.2,216.8 116.2,219.8 112.5,224.8 109.3,221.7 	"/>
	<polygon id="XMLID_21_" style="fill:#130524;" points="111.9,164.3 113.7,170.2 109.9,170.2 109.9,166.4 	"/>
	<polygon id="XMLID_20_" style="fill:#130524;" points="112.1,207 108.1,208.8 108.4,207.5 110.9,206.4 	"/>
	<polygon id="XMLID_19_" style="fill:#130524;" points="109.9,166.4 109.9,170.2 105.3,170.2 104.5,170.2 105.6,160.6 110,158.2 
		111.9,164.3 	"/>
	<polygon id="XMLID_18_" style="fill:#490098;" points="107.5,149.9 110,158.2 105.6,160.6 104.5,170.2 102.1,170.2 102.1,145.8 
		92.5,145.8 79.6,119.8 68.4,119.8 64.1,111.2 71.2,90 73.4,90.8 73.4,111 104,142.2 111,138.2 111,149.9 	"/>
	<polygon id="XMLID_17_" style="fill:#130524;" points="111,118.8 111,138.2 104,142.2 73.4,111 73.4,90.8 103.4,102.7 103.4,118.8 
			"/>
	<polygon id="XMLID_16_" style="fill:#5CE6C8;" points="111,101.9 111,118.8 103.4,118.8 103.4,102.7 73.4,90.8 73.4,84.6 95,84.6 	
		"/>
	<polygon id="XMLID_15_" style="fill:#FFAEA1;" points="111,90.3 111,101.9 95,84.6 73.4,84.6 73.4,80.1 91.4,75 	"/>
	<polygon id="XMLID_14_" style="fill:#130524;" points="109,205.4 110.9,206.4 108.4,207.5 	"/>
	<polygon id="XMLID_13_" style="fill:#130524;" points="109.9,194 109.9,195.3 93.5,200 93.7,198.8 	"/>
	<polygon id="XMLID_12_" style="fill:#FFAEA1;" points="109.9,187.7 109.9,194 93.7,198.8 94.4,193.5 101.7,193.5 104.5,170.2 
		105.3,170.2 109.9,170.2 	"/>
	<polygon id="XMLID_11_" style="fill:#130524;" points="105.8,218.3 109.3,221.7 104,225.6 	"/>
	<polygon id="XMLID_10_" style="fill:#130524;" points="108.4,207.5 108.1,208.8 99.8,212.6 98.9,211.7 	"/>
	<polygon id="XMLID_9_" style="fill:#130524;" points="99.8,212.6 108.1,208.8 105.8,218.3 	"/>
	<polygon id="XMLID_8_" style="fill:#130524;" points="102.1,170.2 104.5,170.2 101.7,193.5 94.4,193.5 96.8,177.5 93.2,170.2 
		101.7,170.2 	"/>
	<polygon id="XMLID_7_" style="fill:#130524;" points="102.1,145.8 102.1,170.2 101.7,170.2 93.2,170.2 85.9,155.3 89.5,151.6 
		97.4,167.4 100.4,161.6 92.5,145.8 	"/>
	<polygon id="XMLID_6_" style="fill:#5CE6C8;" points="92.5,145.8 100.4,161.6 97.4,167.4 89.5,151.6 85.9,155.3 81.2,145.8 	"/>
	<polygon id="XMLID_5_" style="fill:none;" points="85.9,155.3 93.2,170.2 96.8,177.5 94.4,193.5 75.6,193.5 75.6,307.7 65.3,307.7 
		47.6,307.7 32.9,307.7 32.9,84.6 61.8,84.6 61.8,106.4 64.1,111.2 68.4,119.8 81.2,145.8 	"/>
	<polygon id="XMLID_4_" style="fill:#130524;" points="79.6,119.8 92.5,145.8 81.2,145.8 68.4,119.8 	"/>
	<polygon id="XMLID_3_" style="fill:#490098;" points="73.4,80.1 73.4,84.6 61.8,84.6 61.8,77.1 68.1,78.2 57.6,69.6 84.4,69.6 
		91.4,75 	"/>
	<polygon id="XMLID_2_" style="fill:#130524;" points="73.4,84.6 73.4,90.8 71.2,90 64.1,111.2 61.8,106.4 61.8,84.6 	"/>
</g>
</svg>
