<?xml version="1.0"?>
<svg xmlns="http://www.w3.org/2000/svg" enable-background="new 0 0 512 512" viewBox="0 0 512 512"><g transform="matrix(1, 2.44929e-16, -2.44929e-16, 1, 0, -1.13687e-13)"><g id="_x39_93_x2C__Arrow_x2C__Keyboard_x2C__Left"><g><g><path d="m147.404 125.644-79.714 132.856 79.714 132.856c4.494 7.49 12.712 12.144 21.448 12.144 19.295 0 31.496-21.133 21.448-37.881l-62.728-104.547c-.95-1.582-.95-3.562 0-5.145l62.728-104.546c9.991-16.651-1.973-37.881-21.448-37.881-8.736 0-16.954 4.653-21.448 12.144z" data-original="#000000" class="active-path" fill="#000000"/><path d="m267.404 125.644-79.714 132.856 79.714 132.856c4.494 7.49 12.713 12.144 21.447 12.144 19.296 0 31.497-21.132 21.449-37.881l-62.729-104.547c-.949-1.582-.95-3.562 0-5.145l62.729-104.547c9.994-16.659-1.979-37.881-21.448-37.881-8.735.001-16.954 4.654-21.448 12.145z" data-original="#000000" class="active-path" fill="#000000"/><path d="m66.859 438.5c0 8.272 6.729 15 15 15s15-6.728 15-15c0-8.271-6.729-15-15-15s-15 6.729-15 15z" data-original="#000000" class="active-path" fill="#000000"/><path d="m387.404 125.644-79.714 132.856 79.714 132.856c4.494 7.49 12.713 12.144 21.447 12.144 19.296 0 31.497-21.132 21.449-37.881l-62.728-104.547c-.95-1.581-.951-3.562 0-5.145l62.728-104.547c2.395-3.992 3.609-8.304 3.61-12.814 0-.001 0-.002 0-.003 0-13.161-10.524-25.064-25.06-25.064-8.733.001-16.952 4.654-21.446 12.145z" data-original="#000000" class="active-path" fill="#000000"/><path d="m376.859 63.5c0 5.514 4.486 10 10 10s10-4.486 10-10-4.486-10-10-10c-5.513 0-10 4.486-10 10z" data-original="#000000" class="active-path" fill="#000000"/><path d="m66.859 68.5c0 13.785 11.215 25 25 25s25-11.215 25-25c-.001-13.785-11.215-25-25-25s-25 11.215-25 25z" data-original="#000000" class="active-path" fill="#000000"/><circle cx="40.144" cy="220.216" r="10" data-original="#000000" class="active-path" fill="#000000"/><circle cx="211.862" cy="68.503" r="10" data-original="#000000" class="active-path" fill="#000000"/><circle cx="331.856" cy="78.498" r="10" data-original="#000000" class="active-path" fill="#000000"/><circle cx="61.857" cy="358.503" r="10" data-original="#000000" class="active-path" fill="#000000"/><circle cx="201.862" cy="458.498" r="10" data-original="#000000" class="active-path" fill="#000000"/><circle cx="351.862" cy="438.503" r="10" data-original="#000000" class="active-path" fill="#000000"/><circle cx="471.857" cy="298.503" r="10" data-original="#000000" class="active-path" fill="#000000"/></g></g></g></g> </svg>
