<svg xmlns="http://www.w3.org/2000/svg" viewBox="0 0 512 512">
<g class="nc-icon-wrapper js-transition-icon" data-effect="scale" data-event="mouseenter"><g class="js-transition-icon__state" style=""><g>
	<g>
		<path d="M485.743,85.333H26.257C11.815,85.333,0,97.148,0,111.589V400.41c0,14.44,11.815,26.257,26.257,26.257h459.487    c14.44,0,26.257-11.815,26.257-26.257V111.589C512,97.148,500.185,85.333,485.743,85.333z M475.89,105.024L271.104,258.626    c-3.682,2.802-9.334,4.555-15.105,4.529c-5.77,0.026-11.421-1.727-15.104-4.529L36.109,105.024H475.89z M366.5,268.761    l111.59,137.847c0.112,0.138,0.249,0.243,0.368,0.368H33.542c0.118-0.131,0.256-0.23,0.368-0.368L145.5,268.761    c3.419-4.227,2.771-10.424-1.464-13.851c-4.227-3.419-10.424-2.771-13.844,1.457l-110.5,136.501V117.332l209.394,157.046    c7.871,5.862,17.447,8.442,26.912,8.468c9.452-0.02,19.036-2.6,26.912-8.468l209.394-157.046v275.534L381.807,256.367    c-3.42-4.227-9.623-4.877-13.844-1.457C363.729,258.329,363.079,264.534,366.5,268.761z" data-original="#000000" className="active-path" fill="#000000"></path>
	</g>
</g></g><g className="js-transition-icon__state" style="display: none;" aria-hidden="true"><g>
	<g>
		<g>
			<path d="M511.872,195.725c-0.053-0.588-0.17-1.169-0.35-1.732c-0.117-0.503-0.28-0.994-0.486-1.468     c-0.239-0.463-0.525-0.901-0.853-1.306c-0.329-0.481-0.71-0.924-1.135-1.323c-0.137-0.119-0.196-0.282-0.341-0.401     l-82.065-63.735V59.704c0-14.138-11.462-25.6-25.6-25.6h-92.476L271.539,5.355c-9.147-7.134-21.974-7.134-31.121,0     l-37.035,28.749h-92.476c-14.138,0-25.6,11.461-25.6,25.6v66.057L3.268,189.496c-0.145,0.12-0.205,0.282-0.341,0.401     c-0.425,0.398-0.806,0.842-1.135,1.323c-0.328,0.405-0.614,0.842-0.853,1.306c-0.207,0.473-0.369,0.965-0.486,1.468     c-0.178,0.555-0.295,1.127-0.35,1.707c0,0.179-0.102,0.333-0.102,0.512V486.37c0.012,5.428,1.768,10.708,5.009,15.061     c0.051,0.077,0.06,0.171,0.119,0.239c0.06,0.068,0.188,0.145,0.273,0.239c4.794,6.308,12.25,10.027,20.173,10.061h460.8     c7.954-0.024,15.441-3.761,20.241-10.103c0.068-0.085,0.171-0.111,0.23-0.196c0.06-0.085,0.068-0.162,0.12-0.239     c3.241-4.354,4.997-9.634,5.009-15.061V196.237C511.974,196.058,511.881,195.904,511.872,195.725z M250.854,18.82     c2.98-2.368,7.2-2.368,10.18,0l19.686,15.283h-49.493L250.854,18.82z M27.725,494.904l223.13-173.321     c2.982-2.364,7.199-2.364,10.18,0l223.189,173.321H27.725z M494.908,481.6L271.539,308.117c-9.149-7.128-21.972-7.128-31.121,0     L17.041,481.6V209.233L156.877,317.82c3.726,2.889,9.088,2.211,11.977-1.515c2.889-3.726,2.211-9.088-1.515-11.977     L25.276,194.018l60.032-46.652v65.937c0,4.713,3.821,8.533,8.533,8.533c4.713,0,8.533-3.821,8.533-8.533v-153.6     c0-4.713,3.82-8.533,8.533-8.533h290.133c4.713,0,8.533,3.82,8.533,8.533v153.6c0,4.713,3.82,8.533,8.533,8.533     s8.533-3.821,8.533-8.533v-65.937l60.032,46.652l-142.31,110.507c-2.448,1.855-3.711,4.883-3.305,7.928s2.417,5.637,5.266,6.786     c2.849,1.149,6.096,0.679,8.501-1.232l140.083-108.774V481.6z" data-original="#000000" className="active-path" fill="#000000"></path>
			<path d="M358.374,204.77v-34.133c0-56.554-45.846-102.4-102.4-102.4c-56.554,0-102.4,45.846-102.4,102.4     s45.846,102.4,102.4,102.4c4.713,0,8.533-3.82,8.533-8.533s-3.82-8.533-8.533-8.533c-47.128,0-85.333-38.205-85.333-85.333     s38.205-85.333,85.333-85.333s85.333,38.205,85.333,85.333v34.133c0,9.426-7.641,17.067-17.067,17.067     s-17.067-7.641-17.067-17.067v-34.133c0-4.713-3.82-8.533-8.533-8.533s-8.533,3.82-8.533,8.533     c0,18.851-15.282,34.133-34.133,34.133c-18.851,0-34.133-15.282-34.133-34.133s15.282-34.133,34.133-34.133     c4.713,0,8.533-3.82,8.533-8.533s-3.82-8.533-8.533-8.533c-22.915-0.051-43.074,15.13-49.354,37.168     c-6.28,22.038,2.847,45.565,22.347,57.601c19.5,12.036,44.622,9.65,61.507-5.843c1.858,18.046,17.543,31.464,35.659,30.505     C344.25,237.91,358.431,222.912,358.374,204.77z" data-original="#000000" class="active-path" fill="#000000"></path>
		</g>
	</g>
</g></g></g><script>!function(){"use strict";if(!window.requestAnimationFrame){var a=null;window.requestAnimationFrame=function(t,i){var e=(new Date).getTime();a||(a=e);var s=Math.max(0,16-(e-a)),n=window.setTimeout(function(){t(e+s)},s);return a=e+s,n}}function r(t,i,e,s){return 1&gt;(t/=s/2)?e/2*t*t*t*t+i:-e/2*((t-=2)*t*t*t-2)+i}function e(t){return t?[1,0]:[0,1]}function t(t){this.element=t,this.svg=function t(i){var e=i.parentNode;if("svg"!==e.tagName)e=t(e);return e;}(this.element),this.getSize(),this.states=this.element.querySelectorAll(".js-transition-icon__state"),this.time={start:null,total:200},this.status={interacted:!1,animating:!1},this.animation={effect:this.element.getAttribute("data-effect"),event:this.element.getAttribute("data-event")},this.init()}t.prototype.getSize=function(){var t=this.svg.getAttribute("viewBox");this.size=t?{width:t.split(" ")[2],height:t.split(" ")[3]}:this.svg.getBoundingClientRect()},t.prototype.init=function(){var t=this;this.svg.addEventListener(t.animation.event,function(){t.status.animating||(t.status.animating=!0,window.requestAnimationFrame(t.triggerAnimation.bind(t)))})},t.prototype.triggerAnimation=function(t){var i=this.getProgress(t);this.animateIcon(i),this.checkProgress(i)},t.prototype.getProgress=function(t){return this.time.start||(this.time.start=t),t-this.time.start},t.prototype.checkProgress=function(t){if(this.time.total&gt;t)window.requestAnimationFrame(this.triggerAnimation.bind(this));else{this.status={interacted:!this.status.interacted,animating:!1},this.time.start=null;var i=e(this.status.interacted);this.states[i[0]].removeAttribute("aria-hidden"),this.states[i[1]].setAttribute("aria-hidden","true")}},t.prototype.animateIcon=function(t){if(t&gt;this.time.total){t=this.time.total;}if(0&gt;t){t=0;};var i=e(this.status.interacted);this.states[i[0]].style.display=t&gt;this.time.total/2?"none":"block",this.states[i[1]].style.display=t&gt;this.time.total/2?"block":"none","scale"==this.animation.effect?this.scaleIcon(t,i[0],i[1]):this.rotateIcon(t,i[0],i[1])},t.prototype.scaleIcon=function(t,i,e){var s=r(Math.min(t,this.time.total/2),1,-.2,this.time.total/2).toFixed(2),n=r(Math.max(t-this.time.total/2,0),.2,-.2,this.time.total/2).toFixed(2);this.states[i].setAttribute("transform","translate("+this.size.width*(1-s)/2+" "+this.size.height*(1-s)/2+") scale("+s+")"),this.states[e].setAttribute("transform","translate("+this.size.width*n/2+" "+this.size.height*n/2+") scale("+(1-n)+")")},t.prototype.rotateIcon=function(t,i,e){var s=r(t,0,180,this.time.total).toFixed(2);this.states[i].setAttribute("transform","rotate(-"+s+" "+this.size.width/2+" "+this.size.height/2+")"),this.states[e].setAttribute("transform","rotate("+(180-s)+" "+this.size.width/2+" "+this.size.height/2+")")};var i=document.querySelectorAll(".js-transition-icon");if(i)for(var s=0;i.length&gt;s;s++)new t(i[s])}();</script></svg>