<?xml version="1.0"?>
<svg xmlns="http://www.w3.org/2000/svg" id="Object" height="512px" viewBox="0 0 32 32" width="512px"><g><path d="m16.71 15.29a1 1 0 0 0 -1.42 0l-10 10a1 1 0 0 0 1.42 1.42l9.29-9.3 9.29 9.3a1 1 0 0 0 1.42 0 1 1 0 0 0 0-1.42z" data-original="#000000" class="active-path" data-old_color="#000000" fill="#64FFDA"/><path d="m6.71 16.71 9.29-9.3 9.29 9.3a1 1 0 0 0 1.42 0 1 1 0 0 0 0-1.42l-10-10a1 1 0 0 0 -1.42 0l-10 10a1 1 0 0 0 1.42 1.42z" data-original="#000000" class="active-path" data-old_color="#000000" fill="#64FFDA"/></g> </svg>
