<?xml version="1.0" encoding="utf-8"?>
<!-- Generator: Adobe Illustrator 24.1.1, SVG Export Plug-In . SVG Version: 6.00 Build 0)  -->
<svg version="1.1" id="Layer_1" xmlns="http://www.w3.org/2000/svg"
	 viewBox="0 0 512 512">
<g>
	<path d="M256,0C114.7,0,0,114.7,0,256s114.7,256,256,256s256-114.7,256-256S397.3,0,256,0z M272.4,87.6c3.8,0,7.7,1.1,11.2,3.3
		c2.7,1.7,6.1,3.9,16.1,24.6c6.7-1.8,10-0.8,11.7-0.3c4.4,1.2,7.8,4,9.9,8c10.2,19.5,11.6,54.4,7.1,76.9
		c-5.1,26.3-16.1,43.3-24.1,54.9c6.9,7,16.6,19.2,23.8,38.9c5.9,16.5,6.6,31.6,5.8,43c4.4-2.1,8.7-4.4,12.8-7
		c12.7-7.8,31.7-19.6,54.4-19.9c15.3-0.2,27.1,9.5,28.9,23.6c1.7,13.4-7,26-20.2,29c-13.8,3.4-20.3,6-38.8,18
		c-26.3,17-54.2,26.5-64.3,29.7c-4.4,3.6-9.6,6.1-15.1,7.3c-15.7,3.8-69.7,6.8-73.9,6.8h-1c-16.7,0-25.9-5.2-30.9-10.5
		c-14,7-32.2,4.1-45.3-2.8c-9.2-4.6-14.2-14.6-12.4-24.7c-1.2-1.3-2.3-2.7-3.3-4.2c-3.4-5.3-11.2-19.9-9.7-41.5
		c1.2-15.4,11.8-29.2,18.8-36.4c-0.5-16.5,2.5-32.9,8.8-48.2c6.5-15.5,18.8-28.8,28.2-37.1c-6.8-11.4-13.7-29.2-7.1-47.1
		c4.8-12.9,8.8-20,17.5-23.1h-0.1c4.3-1.6,8.3-3.2,10.3-5.5c12.8-13.9,30.3-22.3,49.1-23.6c0.8-1.9,1.7-3.9,2.7-6
		c6.6-14,13.6-21.9,21.8-24.9C267.6,88,269.9,87.6,272.4,87.6L272.4,87.6z M272.5,102.5c-10.8,0.3-21.3,32.4-21.3,32.4
		s-27.1-4.3-48.3,18.6c-4.3,4.7-10,7.1-15.9,9.4c-1.7,0.6-3.7,0.4-8.9,14.3c-7.9,21.1,13.3,44.7,13.3,44.7S166,239.8,156.7,262
		c-10.4,24.4-7.3,48.3-7.3,48.3s-18,15.6-19.2,31.7c-1.1,14.1,3,25.6,7.3,32.3c4.8,7.3,10.9,3.7,10.9,3.7s-12,13.9-0.8,19.8
		c10.2,5.3,27.3,8.4,36.5-0.8c6.6-6.6,7.9-21.3,10.3-27.3c0.6-1.4,2.6,2.3,4.5,4.3c2.1,2,5.6,4.2,5.6,4.2s-16.1,6.9-9.5,22.8
		c2.2,5.3,10,8.6,22.8,8.5c4.8-0.2,56.8-3,70.7-6.3c8-1.9,10.8-6.1,10.8-6.1s33.4-9.2,63.9-28.9c19.6-12.8,27.6-16.3,43.4-20
		c13.1-3.1,12.2-23.4-5.2-23.1c-17.9,0.2-33.6,9.4-46.8,17.6c-24.8,15.3-37.2,14.3-37.2,14.3l-0.4-0.7c-1.7-2.8,7.9-27.6-2.8-57.2
		c-11.7-32.3-30.2-40.1-28.7-42.6c6.3-10.7,22.2-27.7,28.5-59.3c3.7-19.2,2.8-50.7-5.7-67.2c-1.6-3.1-15.7,5.2-15.7,5.2
		s-13.1-29.3-16.8-31.7L272.5,102.5L272.5,102.5z"/>
</g>
</svg>
