<?xml version="1.0" encoding="utf-8"?>
<!-- Generator: Adobe Illustrator 19.0.0, SVG Export Plug-In . SVG Version: 6.00 Build 0)  -->
<svg version="1.1" id="Calque_1" xmlns="http://www.w3.org/2000/svg" xmlns:xlink="http://www.w3.org/1999/xlink" x="0px" y="0px"
	 viewBox="1520 -1720 4000 4000" style="enable-background:new 1520 -1720 4000 4000;" xml:space="preserve">
<style type="text/css">
	.st0{fill:none;}
	.st1{fill:#130524;}
	.st2{fill:#490098;}
	.st3{fill:#B73CD3;}
	.st4{fill:#FFAEA1;}
	.st5{fill:#F0509C;}
	.st6{fill:#95FFF8;}
</style>
<g id="Layer_3">
	<path class="st0" d="M5520,2280H1520v-4000h4000V2280z"/>
</g>
<g id="Layer_2">
	<polygon class="st0" points="4473.8,-433.8 4448.3,-433.8 4448.3,-534.6 4520.3,-690.6 4515.6,-772.2 4504.2,-971.8 
		4495.4,-1126.6 5376.3,-1126.6 5376.3,1583.9 4960.3,1583.9 4960.3,734 4960.3,721.8 4960.3,398.3 4960.3,387.1 4960.3,214.2 
		4960.3,203.8 4960.3,35.4 4960.3,27.4 4960.3,-239.6 4654.1,-239.6 4572.3,-359.1 4560.7,-363.8 4493.8,-391.1 4493.8,-433.8 	"/>
	<polygon class="st0" points="4960.3,1583.9 4960.3,2073.4 4647.1,2073.4 4591.9,1583.9 	"/>
	<polygon class="st0" points="4822.3,965.9 4828,960.3 4584.5,699.2 4682.6,547.9 4960.3,734 4960.3,1583.9 4591.9,1583.9 
		4556.3,1267.4 4696.5,1245.4 4667.7,1201.4 4576.7,1062.9 4713.6,1019.4 4692.7,989.2 4539.4,768.6 4579.6,706.7 	"/>
	<polygon class="st1" points="4960.3,721.8 4960.3,734 4682.6,547.9 4688,539.5 	"/>
	<polygon class="st0" points="4746.4,449.6 4790.7,381.2 4745.2,381.2 4749.6,329 4960.3,398.3 4960.3,721.8 4688,539.5 	"/>
	<polygon class="st1" points="4960.3,387.1 4960.3,398.3 4749.6,329 4750.4,318.7 	"/>
	<polygon class="st0" points="4813.7,199.8 4818.9,137.3 5017.2,172.6 5017.2,345.5 4807.4,277 	"/>
	<polygon class="st1" points="4960.3,203.8 4960.3,214.2 4762,179 4762.8,169.6 	"/>
	<polygon class="st0" points="4960.3,35.4 4960.3,203.8 4762.8,169.6 4773.9,35.4 	"/>
	<polygon class="st1" points="4960.3,27.4 4960.3,35.4 4773.9,35.4 4774.5,27.4 	"/>
	<polygon class="st0" points="4708.3,-160.4 4703,-168.2 4654.1,-239.6 4960.3,-239.6 4960.3,27.4 4774.5,27.4 4781.3,-53.8 	"/>
	<polygon class="st1" points="4828,960.3 4822.3,965.9 4579.6,706.7 4584.5,699.2 	"/>
	<polygon class="st1" points="4705.2,408.4 4613.8,489.9 4592.4,475.5 4584.8,274.8 4749.6,329 4745.2,381.2 4790.7,381.2 
		4746.4,449.6 	"/>
	<polygon class="st2" points="4708.3,-160.4 4781.3,-53.8 4774.5,27.4 4575.5,27.4 4569.6,-127.5 	"/>
	<polygon class="st1" points="4774.5,27.4 4773.9,35.4 4575.8,35.4 4575.5,27.4 	"/>
	<polygon class="st2" points="4773.9,35.4 4762.8,169.6 4579.6,137.9 4575.8,35.4 	"/>
	<polygon class="st1" points="4762.8,169.6 4762,179 4580,146.6 4579.6,137.9 	"/>
	<polygon class="st2" points="4762,179 4756.8,241.4 4583.5,241.4 4580,146.6 	"/>
	<polygon class="st3" points="4756.8,241.4 4750.4,318.7 4584.4,264.5 4583.5,241.4 	"/>
	<polygon class="st1" points="4750.4,318.7 4749.6,329 4584.8,274.8 4584.4,264.5 	"/>
	<polygon class="st1" points="4746.4,449.6 4688,539.5 4613.8,489.9 4705.2,408.4 	"/>
	<polygon class="st4" points="4576.7,1062.9 4548.9,1071.7 4507.1,1201.4 4352.3,1201.4 4352.3,1068.7 4502.2,1017.3 4439.2,897.3 
		4692.7,989.2 4713.6,1019.4 	"/>
	<polygon class="st1" points="4703,-168.2 4708.3,-160.4 4569.6,-127.5 4569.3,-136.2 	"/>
	<polygon class="st1" points="4654.1,-239.6 4703,-168.2 4569.3,-136.2 4565.4,-239.6 	"/>
	<polygon class="st2" points="4354.3,1469.5 4413.8,1491.4 4459.4,1349.8 4461.8,1342.4 4507.1,1201.4 4667.7,1201.4 4696.5,1245.4 
		4556.3,1267.4 4591.9,1583.9 4510.3,1583.9 4510.3,1818.4 4265.5,1818.4 4206.8,1415.1 	"/>
	<polygon class="st2" points="4539.4,768.6 4692.7,989.2 4439.2,897.3 4502.2,1017.3 4352.3,1068.7 4352.3,803.4 4352.3,747.2 
		4481.8,685.6 	"/>
	<polygon class="st1" points="4688,539.5 4682.6,547.9 4606.1,496.7 4613.8,489.9 	"/>
	<polygon class="st1" points="4682.6,547.9 4584.5,699.2 4544.2,656 4598.2,630.3 4593.6,507.9 4606.1,496.7 	"/>
	<polygon class="st5" points="4576.7,1062.9 4667.7,1201.4 4507.1,1201.4 4548.9,1071.7 	"/>
	<polygon class="st5" points="4572.3,-359.1 4654.1,-239.6 4565.4,-239.6 4561.7,-336.6 4560.7,-363.8 	"/>
	<polygon class="st0" points="4265.5,1818.4 4510.3,1818.4 4510.3,1583.9 4591.9,1583.9 4647.1,2073.4 2299.5,2073.4 2686.7,1545.5 
		2814.8,1545.5 2879.1,1822.9 3345.9,1486.9 3345.9,1752.9 3467.1,1607.3 3693.9,1334.6 3693.9,1208.4 3693.9,1178 3693.9,979.1 
		3615.3,1016 3487.1,1076.2 3347.1,1007.3 3177.8,924 3359.6,653.4 3466.3,653.4 3466.3,575.4 3520,505.9 3548.5,533.9 
		3653.3,474.1 3763.3,411.4 3886.3,411.4 3925,332.8 4033.3,400.9 4068.9,423.2 4210.8,512.5 4352.3,601.4 4352.3,666.2 
		4197.7,820.8 4001,914.4 3736.2,910 3760.9,1028.5 3808.3,1255.4 4064.3,1167.6 4064.3,1203.4 4434.7,1340.6 4128.9,1320.9 
		4354.3,1429.4 4354.3,1469.5 4206.8,1415.1 	"/>
	<polygon class="st1" points="4613.8,489.9 4606.1,496.7 4592.8,487.8 4592.4,475.5 	"/>
	<polygon class="st1" points="4606.1,496.7 4593.6,507.9 4592.8,487.8 	"/>
	<polygon class="st1" points="4593.6,507.9 4598.2,630.3 4544.2,656 4491.2,599.2 	"/>
	<polygon class="st4" points="4592.8,487.8 4593.6,507.9 4491.2,599.2 4456.5,562 4481.2,537.2 4445.1,388.8 	"/>
	<polygon class="st1" points="4592.4,475.5 4592.8,487.8 4445.1,388.8 4441.7,374.6 	"/>
	<polygon class="st4" points="4584.8,274.8 4592.4,475.5 4441.7,374.6 4409.3,241.4 4483.3,241.4 	"/>
	<polygon class="st1" points="4584.4,264.5 4584.8,274.8 4483.3,241.4 4513.4,241.4 	"/>
	<polygon class="st1" points="4583.5,241.4 4584.4,264.5 4513.4,241.4 	"/>
	<polygon class="st1" points="4580,146.6 4583.5,241.4 4513.4,241.4 4400.3,204.5 4377.5,110.7 	"/>
	<polygon class="st1" points="4579.6,137.9 4580,146.6 4377.5,110.7 4375.6,102.6 	"/>
	<polygon class="st1" points="4575.8,35.4 4579.6,137.9 4375.6,102.6 4359.2,35.4 	"/>
	<polygon class="st1" points="4535.8,660 4579.6,706.7 4539.4,768.6 4481.8,685.6 	"/>
	<polygon class="st1" points="4575.5,27.4 4575.8,35.4 4359.2,35.4 4357.3,27.4 	"/>
	<polygon class="st1" points="4569.6,-127.5 4575.5,27.4 4357.3,27.4 4333.2,-71.5 	"/>
	<polygon class="st1" points="4569.3,-136.2 4569.6,-127.5 4333.2,-71.5 4331.3,-79.2 	"/>
	<polygon class="st1" points="4316.3,-239.6 4565.4,-239.6 4569.3,-136.2 4331.3,-79.2 4322.2,-116.8 4120.3,-198.2 4120.3,-235.5 
		4178.3,-221.6 4316.3,-306.9 	"/>
	<polygon class="st6" points="4561.7,-336.6 4565.4,-239.6 4316.3,-239.6 4316.3,-306.9 4356.3,-331.6 4428.3,-331.6 4451.8,-384.4 
			"/>
	<polygon class="st1" points="4560.7,-363.8 4561.7,-336.6 4561.7,-336.6 4451.8,-384.4 4473.8,-433.8 4493.8,-433.8 4493.8,-391.1 
			"/>
	<polygon class="st1" points="4491.2,599.2 4544.2,656 4535.8,660 4484.5,605.2 	"/>
	<polygon class="st1" points="4484.5,605.2 4535.8,660 4481.8,685.6 4448.3,637.4 	"/>
	<polygon class="st2" points="4515.6,-772.2 4520.3,-690.6 4448.3,-534.6 4448.3,-433.8 4417.1,-433.8 4417.1,-433.8 4356.3,-487.2 
		4356.3,-646.9 4472.3,-728.6 4455,-798.5 	"/>
	<polygon class="st4" points="4504.2,-971.8 4515.6,-772.2 4455,-798.5 4414.3,-962.6 4427.1,-1023.8 	"/>
	<polygon class="st1" points="4513.4,241.4 4483.3,241.4 4402.9,214.9 4400.3,204.5 	"/>
	<polygon class="st1" points="4352.3,1201.4 4507.1,1201.4 4461.8,1342.4 4434.7,1340.6 4064.3,1203.4 4064.3,1167.6 4352.3,1068.7 
			"/>
	<polygon class="st1" points="4495.4,-1126.6 4504.2,-971.8 4427.1,-1023.8 4448.7,-1126.6 	"/>
	<polygon class="st2" points="4487.1,-1272.9 4495.4,-1126.6 4448.7,-1126.6 4458.3,-1172.6 4329.3,-1241.5 4398.3,-1324.6 	"/>
	<polygon class="st1" points="4456.5,562 4491.2,599.2 4484.5,605.2 4450.1,568.4 	"/>
	<polygon class="st4" points="4450.1,568.4 4484.5,605.2 4448.3,637.4 4481.8,685.6 4352.3,747.2 4352.3,666.2 	"/>
	<polygon class="st1" points="4483.3,241.4 4409.3,241.4 4402.9,214.9 	"/>
	<polygon class="st1" points="4445.1,388.8 4481.2,537.2 4456.5,562 4288.5,381.8 4330.1,311.7 	"/>
	<polygon class="st1" points="4448.3,-433.8 4473.8,-433.8 4451.8,-384.4 4356.3,-426 4356.3,-487.2 4417.1,-433.8 4417.1,-433.8 	
		"/>
	<polygon class="st5" points="4455,-798.5 4472.3,-728.6 4356.3,-646.9 4356.3,-683.6 4194.3,-724.6 4194.3,-778.6 4155.9,-770.7 
		4155.9,-863.5 4292.3,-727 4391.3,-826 	"/>
	<polygon class="st4" points="4459.4,1349.8 4413.8,1491.4 4354.3,1469.5 4354.3,1429.4 4128.9,1320.9 4434.7,1340.6 	"/>
	<polygon class="st1" points="4300.3,-1126.6 4123.9,-895.4 4079.3,-940 4329.3,-1241.5 4458.3,-1172.6 4448.7,-1126.6 	"/>
	<polygon class="st1" points="4288.5,381.8 4456.5,562 4450.1,568.4 4283.3,390.4 	"/>
	<polygon class="st3" points="4414.3,-962.6 4455,-798.5 4391.3,-826 4292.3,-727 4155.9,-863.5 4155.9,-906.5 4377.8,-1056.9 
		4427.1,-1023.8 	"/>
	<polygon class="st1" points="4356.3,-426 4451.8,-384.4 4428.3,-331.6 4356.3,-331.6 4316.3,-306.9 4316.3,-353 4316.3,-389.3 
		4316.3,-443.4 	"/>
	<polygon class="st1" points="4283.3,390.4 4450.1,568.4 4352.3,666.2 4352.3,601.4 4210.8,512.5 	"/>
	<polygon class="st6" points="4155.9,-906.5 4155.9,-863.5 4123.9,-895.4 4300.3,-1126.6 4448.7,-1126.6 4427.1,-1023.8 
		4377.8,-1056.9 	"/>
	<polygon class="st1" points="4441.7,374.6 4445.1,388.8 4330.1,311.7 4335.2,303.3 	"/>
	<polygon class="st1" points="4409.3,241.4 4441.7,374.6 4335.2,303.3 4372,241.4 4399.3,241.4 	"/>
	<polygon class="st1" points="4402.9,214.9 4409.3,241.4 4399.3,241.4 4372,241.4 4380.3,227.4 4361.6,201.4 	"/>
	<polygon class="st1" points="4400.3,204.5 4402.9,214.9 4361.6,201.4 4352.8,189 	"/>
	<polygon class="st5" points="4377.5,110.7 4400.3,204.5 4352.8,189 4284.8,94.2 	"/>
	<polygon class="st4" points="4361.6,201.4 4380.3,227.4 4372,241.4 4242.6,241.4 4120.3,159.5 4120.3,122 	"/>
	<polygon class="st1" points="4375.6,102.6 4377.5,110.7 4284.8,94.2 4278.8,85.9 	"/>
	<polygon class="st5" points="4359.2,35.4 4375.6,102.6 4278.8,85.9 4242.6,35.4 	"/>
	<polygon class="st6" points="4372,241.4 4335.2,303.3 4242.6,241.4 	"/>
	<polygon class="st1" points="4352.8,189 4361.6,201.4 4120.3,122 4120.3,113.2 	"/>
	<polygon class="st1" points="4357.3,27.4 4359.2,35.4 4242.6,35.4 4236.9,27.4 	"/>
	<polygon class="st5" points="4333.2,-71.5 4357.3,27.4 4236.9,27.4 4190.3,-37.6 	"/>
	<polygon class="st1" points="4316.3,-443.4 4316.3,-389.3 4287.3,-389.3 4287.3,-450.6 4191.1,-567.4 4225.7,-602 4356.3,-487.2 
		4356.3,-426 	"/>
	<polygon class="st1" points="4356.3,-646.9 4356.3,-487.2 4225.7,-602 4150.2,-668.5 4086.3,-724.6 3979.3,-653.6 3982.4,-713.5 
		4054.3,-804.1 4068.3,-752.6 4155.9,-770.7 4194.3,-778.6 4194.3,-724.6 4356.3,-683.6 	"/>
	<polygon class="st3" points="4284.8,94.2 4352.8,189 4120.3,113.2 4120.3,94.4 4120.3,65 	"/>
	<polygon class="st1" points="4352.3,803.4 4352.3,1068.7 4064.3,1167.6 4064.3,954.2 4197.7,820.8 4352.3,747.2 	"/>
	<polygon class="st5" points="4352.3,666.2 4352.3,747.2 4197.7,820.8 	"/>
	<polygon class="st1" points="4335.2,303.3 4330.1,311.7 4225.2,241.4 4242.6,241.4 	"/>
	<polygon class="st1" points="4331.3,-79.2 4333.2,-71.5 4190.3,-37.6 4185.5,-44.2 	"/>
	<polygon class="st6" points="4322.2,-116.8 4331.3,-79.2 4185.5,-44.2 4120.3,-135.1 4120.3,-198.2 	"/>
	<polygon class="st6" points="4288.5,381.8 4283.3,390.4 4210.8,512.5 4068.9,423.2 4068.9,329.8 4120.3,369.5 4120.3,241.4 
		4225.2,241.4 4330.1,311.7 	"/>
	<polygon class="st1" points="4287.3,-336 4316.3,-353 4316.3,-306.9 4178.3,-221.6 4120.3,-235.5 4120.3,-271.6 4177.7,-271.6 
		4177.7,-271.6 	"/>
	<polygon class="st1" points="4316.3,-389.3 4316.3,-353 4287.3,-336 4287.3,-389.3 	"/>
	<polygon class="st1" points="4164.4,-285.6 4246.3,-346.6 4246.3,-389.3 4287.3,-389.3 4287.3,-336 4177.7,-271.6 4177.7,-271.6 
		4120.3,-271.6 4120.3,-285.6 	"/>
	<polygon class="st1" points="4246.3,-471.3 4169.3,-545.6 4191.1,-567.4 4287.3,-450.6 4287.3,-389.3 4246.3,-389.3 4246.3,-403.3 
			"/>
	<polygon class="st1" points="4278.8,85.9 4284.8,94.2 4120.3,65 4120.3,58.4 	"/>
	<polygon class="st3" points="4242.6,35.4 4278.8,85.9 4120.3,58.4 4120.3,35.4 	"/>
	<polygon class="st2" points="4120.3,-285.6 4068.3,-285.6 4021.5,-322.1 4046.2,-361.5 4083.3,-326.6 4133.6,-326.6 4155.9,-326.6 
		4191,-389.3 4246.3,-389.3 4246.3,-346.6 4164.4,-285.6 	"/>
	<polygon class="st5" points="4246.3,-403.3 4246.3,-389.3 4191,-389.3 4155.9,-326.6 4133.6,-326.6 4200.3,-414.6 4155.2,-497.6 
		4177.4,-497.6 	"/>
	<polygon class="st4" points="4177.4,-497.6 4155.2,-497.6 4143.3,-519.6 4169.3,-545.6 4246.3,-471.3 4246.3,-403.3 	"/>
	<polygon class="st1" points="4242.6,241.4 4225.2,241.4 4120.3,171.1 4120.3,159.5 	"/>
	<polygon class="st1" points="4236.9,27.4 4242.6,35.4 4120.3,35.4 4120.3,27.4 	"/>
	<polygon class="st3" points="4190.3,-37.6 4236.9,27.4 4120.3,27.4 4120.3,-21 	"/>
	<polygon class="st1" points="4225.7,-602 4191.1,-567.4 4107.7,-668.5 4150.2,-668.5 	"/>
	<polygon class="st1" points="4225.2,241.4 4120.3,241.4 4120.3,171.1 	"/>
	<path class="st1" d="M4046.2-361.5l-99.2-93.4l25-29.7l71.3,36l27.5-49h84.4l45.1,83l-66.7,88h-50.3L4046.2-361.5z M4159-446.3
		v-19.3h-19.3v19.3H4159z"/>
	<polygon class="st1" points="4197.7,820.8 4064.3,954.2 4064.3,915.4 4001,914.4 	"/>
	<polygon class="st1" points="3900.6,-399.7 3884.3,-380.5 3870.6,-394.5 3870.6,-492.6 3870.6,-536.5 4023.9,-668.5 4107.7,-668.5 
		4191.1,-567.4 4169.3,-545.6 4144.3,-569.6 4043.6,-569.6 4027.1,-550 3982.9,-497.6 3972,-484.6 3947.1,-455 	"/>
	<polygon class="st1" points="4185.5,-44.2 4190.3,-37.6 4120.3,-21 4120.3,-28.6 	"/>
	<polygon class="st5" points="4134.1,-153.3 4199.3,-62.4 4134.1,-46.8 	"/>
	<polygon class="st2" points="4169.3,-545.6 4143.3,-519.6 4155.2,-497.6 4070.8,-497.6 4088.8,-529.6 4027.1,-550 4043.6,-569.6 
		4144.3,-569.6 	"/>
	<rect x="4139.6" y="-465.6" class="st1" width="19.3" height="19.3"/>
	<polygon class="st1" points="4155.9,-863.5 4155.9,-770.7 4068.3,-752.6 4054.3,-804.1 4123.9,-895.4 	"/>
	<polygon class="st6" points="4107.7,-668.5 4023.9,-668.5 3870.6,-536.5 3870.6,-572.6 3982.4,-713.5 3979.3,-653.6 4086.3,-724.6 
		4150.2,-668.5 	"/>
	<polygon class="st1" points="4046.2,-833.7 3986.4,-792.1 3988.4,-830.4 4079.3,-940 4123.9,-895.4 4054.3,-804.1 	"/>
	<polygon class="st1" points="4068.9,329.8 3965.6,250.2 3970,241.4 4120.3,241.4 4120.3,369.5 	"/>
	<polygon class="st5" points="3978.5,224.1 3854.3,142.3 3854.3,86.1 3990.3,86.1 4023.3,150.4 4099.5,106.4 4120.3,113.2 
		4120.3,122 4120.3,159.5 4120.3,171.1 4120.3,241.4 3970,241.4 	"/>
	<polygon class="st1" points="3990.3,86.1 3854.3,86.1 3854.3,-36.3 3935.6,-104.9 3935.6,-153.3 3975,-153.3 3975,-179.2 
		4065.9,-211 4120.3,-135.1 4120.3,-28.6 4120.3,-21 4045.3,-3.2 4045.3,27.4 4120.3,27.4 4120.3,35.4 4120.3,58.4 4120.3,65 
		4120.3,94.4 4099.5,106.4 4023.3,150.4 	"/>
	<polygon class="st1" points="4120.3,-21 4120.3,27.4 4045.3,27.4 4045.3,-3.2 	"/>
	<polygon class="st1" points="4120.3,-198.2 4120.3,-135.1 4065.9,-211 4056.7,-223.9 	"/>
	<polygon class="st1" points="4120.3,-235.5 4120.3,-198.2 4056.7,-223.9 4033.3,-256.4 	"/>
	<polygon class="st1" points="4120.3,-271.6 4120.3,-235.5 4033.3,-256.4 4022.4,-271.6 	"/>
	<polygon class="st3" points="4120.3,-285.6 4120.3,-271.6 4022.4,-271.6 4005,-295.9 4021.5,-322.1 4068.3,-285.6 	"/>
	<polygon class="st1" points="4088.8,-529.6 4070.8,-497.6 3982.9,-497.6 4027.1,-550 	"/>
	<polygon class="st2" points="4070.8,-497.6 4043.3,-448.6 3972,-484.6 3982.9,-497.6 	"/>
	<polygon class="st1" points="4068.9,329.8 4068.9,423.2 4033.3,400.9 4033.3,351.4 3948.1,285.9 3965.6,250.2 	"/>
	<polygon class="st5" points="4025.8,-236.3 4056.7,-223.9 4065.9,-211 3975,-179.2 3975,-237.4 3963.3,-249.8 3908.4,-308.3 
		3927.3,-336.7 	"/>
	<polygon class="st3" points="4064.3,954.2 4064.3,1167.6 3808.3,1255.4 3760.9,1028.5 3790.7,1014.4 3931.7,1086.8 	"/>
	<polygon class="st6" points="4064.3,915.4 4064.3,954.2 3931.7,1086.8 3790.7,1014.4 4001,914.4 	"/>
	<polygon class="st1" points="4033.3,-256.4 4056.7,-223.9 4025.8,-236.3 3927.3,-336.7 3940,-356 4015.9,-271.6 4022.4,-271.6 	"/>
	<polygon class="st1" points="4046.2,-833.7 4054.3,-804.1 3982.4,-713.5 3986.4,-792.1 	"/>
	<polygon class="st6" points="3952.9,-375.5 3940,-356 3900.6,-399.7 3947.1,-455 4046.2,-361.5 4021.5,-322.1 	"/>
	<polygon class="st1" points="4033.3,351.4 4033.3,400.9 3925,332.8 3948.1,285.9 	"/>
	<polygon class="st1" points="4005,-295.9 4022.4,-271.6 4015.9,-271.6 3940,-356 3952.9,-375.5 4021.5,-322.1 	"/>
	<polygon class="st5" points="4001,914.4 3790.7,1014.4 3760.9,1028.5 3736.2,910 	"/>
	<polygon class="st5" points="3870.6,-572.6 3870.6,-536.5 3870.6,-492.6 3851.4,-492.6 3851.4,-608.6 3909.5,-738.6 3986.4,-792.1 
		3982.4,-713.5 	"/>
	<polygon class="st1" points="3854.3,142.3 3978.5,224.1 3970,241.4 3954.3,241.4 3908.4,206 3856.1,206 3835.2,170.9 3788.3,170.9 
		3788.3,86.1 3854.3,86.1 	"/>
	<polygon class="st1" points="3935.6,-153.3 3935.6,-104.9 3854.3,-36.3 3854.3,-137.1 3975,-179.2 3975,-153.3 	"/>
	<polygon class="st1" points="3580.4,-250.6 3515.3,-184.1 3546.3,-139.6 3593.3,-197.1 3605,-197.1 3605,-189.6 3670.8,-161.2 
		3670.8,-87.9 3716.3,-20.6 3738.3,-28.2 3759.1,-35.3 3745.8,-64.1 3768,-74.5 3773,-26.6 3832.3,-51.9 3825.8,-101.7 
		3811.6,-209.9 3882.3,-254.6 3918.3,-214.2 3938.9,-230.5 3963.3,-249.8 3975,-237.4 3975,-179.2 3854.3,-137.1 3854.3,-36.3 
		3807.1,3.4 3746.3,3.4 3692.3,3.4 3631,-71.2 3653.6,-129.3 3597.6,-163.3 3558.3,-87.3 3447.6,-121.2 3447.6,-140.6 3461,-153.9 
		3505.3,-137.1 3505.3,-218.6 3573.3,-286.6 3605,-286.6 3605,-250.6 	"/>
	<polygon class="st1" points="3965.6,250.2 3948.1,285.9 3890.3,241.4 3954.3,241.4 	"/>
	<polygon class="st1" points="3896.3,-289.9 3908.4,-308.3 3963.3,-249.8 3938.9,-230.5 3938.3,-231.3 3882,-289.9 	"/>
	<polygon class="st1" points="3890.3,241.4 3877.3,241.4 3856.1,206 3908.4,206 3954.3,241.4 	"/>
	<polygon class="st1" points="3746.3,241.4 3877.3,241.4 3890.3,241.4 3948.1,285.9 3925,332.8 3866.8,296.2 3653.3,373.4 
		3653.3,394 3617.1,380.1 3724.3,241.4 	"/>
	<polygon class="st1" points="3945.9,-820 3909.5,-738.6 3851.4,-698.2 3851.4,-787 3828,-816 3847.1,-853.4 	"/>
	<polygon class="st1" points="3900.6,-399.7 3940,-356 3927.3,-336.7 3884.3,-380.5 	"/>
	<polygon class="st4" points="3820.5,-234.6 3807.3,-262.9 3834.3,-289.9 3882,-289.9 3938.3,-231.3 3938.9,-230.5 3918.3,-214.2 
		3882.3,-254.6 3811.6,-209.9 3825.8,-101.7 3768,-74.5 3755.8,-191.2 	"/>
	<polygon class="st1" points="3884.3,-380.5 3927.3,-336.7 3908.4,-308.3 3890,-327.9 3761.5,-464.7 3757.3,-505.6 3775.3,-505.6 
		3778.3,-488.6 3851.4,-414.1 3870.6,-394.5 	"/>
	<polygon class="st2" points="3653.3,394 3653.3,373.4 3866.8,296.2 3925,332.8 3886.3,411.4 3763.3,411.4 3653.3,474.1 	"/>
	<polygon class="st1" points="3909.5,-738.6 3851.4,-608.6 3851.4,-698.2 	"/>
	<polygon class="st1" points="3882,-289.9 3834.3,-289.9 3807.3,-262.9 3787.1,-305.9 3813,-327.9 3890,-327.9 3908.4,-308.3 
		3896.3,-289.9 	"/>
	<polygon class="st3" points="3517.9,-458.8 3618.3,-514.6 3390.3,-632.6 3390.3,-701.8 3422.3,-779.6 3390.3,-793.9 3390.3,-839.3 
		3546.3,-730.6 3504.3,-857.6 3562.3,-811.6 3646,-861.5 3693.3,-505.6 3757.3,-505.6 3761.5,-464.7 3890,-327.9 3813,-327.9 
		3787.1,-305.9 3755.3,-373.6 3605,-373.6 3474.3,-373.6 3474.3,-434.6 	"/>
	<polygon class="st1" points="3856.1,206 3877.3,241.4 3746.3,241.4 3746.3,192.5 3767.8,170.9 3788.3,170.9 3835.2,170.9 	"/>
	<polygon class="st1" points="3870.6,-492.6 3870.6,-394.5 3851.4,-414.1 3851.4,-492.6 	"/>
	<polygon class="st4" points="3807.1,3.4 3854.3,-36.3 3854.3,86.1 3788.3,86.1 3788.3,19.3 	"/>
	<polygon class="st1" points="3775.3,-505.6 3752.3,-638.6 3812.3,-660.6 3834.3,-492.6 3851.4,-492.6 3851.4,-414.1 3778.3,-488.6 
			"/>
	<polygon class="st1" points="3851.4,-698.2 3851.4,-608.6 3851.4,-492.6 3834.3,-492.6 3812.3,-660.6 3752.3,-638.6 3775.3,-505.6 
		3757.3,-505.6 3729.4,-781.5 3794.3,-749.6 3828,-816 3851.4,-787 	"/>
	<polygon class="st1" points="3847.1,-853.4 3828,-816 3779.5,-876.2 	"/>
	<polygon class="st6" points="3825.8,-101.7 3832.3,-51.9 3773,-26.6 3768,-74.5 	"/>
	<polygon class="st1" points="3755.8,-191.2 3738.3,-179.4 3695.3,-150.6 3670.8,-161.2 3670.8,-197.1 3605,-197.1 3605,-250.6 
		3795,-250.6 3807.3,-262.9 3820.5,-234.6 	"/>
	<polygon class="st1" points="3787.1,-305.9 3807.3,-262.9 3795,-250.6 3605,-250.6 3605,-286.6 3764.3,-286.6 	"/>
	<polygon class="st1" points="3788.3,19.3 3788.3,86.1 3752.3,86.1 3746.3,95.5 3746.3,3.4 3807.1,3.4 	"/>
	<polygon class="st1" points="3788.3,86.1 3788.3,170.9 3767.8,170.9 3746.3,192.5 3746.3,95.5 3752.3,86.1 	"/>
	<polygon class="st1" points="3755.3,-373.6 3787.1,-305.9 3764.3,-286.6 3605,-286.6 3605,-373.6 	"/>
	<polygon class="st2" points="3755.8,-191.2 3768,-74.5 3745.8,-64.1 3759.1,-35.3 3738.3,-28.2 3738.3,-179.4 	"/>
	<polygon class="st2" points="3729.4,-781.5 3757.3,-505.6 3693.3,-505.6 3646,-861.5 3662.6,-871.4 3672.3,-809.6 	"/>
	<polygon class="st1" points="3653.3,285.5 3746.3,192.5 3746.3,241.4 3724.3,241.4 3617.1,380.1 3558.3,357.6 3653.3,216.3 	"/>
	<polygon class="st5" points="3706.8,158 3746.3,95.5 3746.3,192.5 3653.3,285.5 3653.3,216.3 3692.4,158 	"/>
	<polygon class="st6" points="3692.4,158 3684.6,158 3653.3,158 3653.3,93 3653.3,77.4 3653.3,-30.6 3572.3,-30.6 3572.3,-82.6 
		3621.6,-82.6 3631,-71.2 3692.3,3.4 3746.3,3.4 3746.3,95.5 3706.8,158 	"/>
	<polygon class="st4" points="3738.3,-179.4 3738.3,-28.2 3716.3,-20.6 3670.8,-87.9 3670.8,-161.2 3695.3,-150.6 	"/>
	<polygon class="st5" points="3693.9,1208.4 3693.9,1334.6 3467.1,1607.3 3516.3,1367.4 3420.7,1311.9 	"/>
	<polygon class="st1" points="3557.6,1166.5 3575.6,1119.7 3693.9,1178 3693.9,1208.4 3420.7,1311.9 3141.2,1417.9 3107.9,1102.6 	
		"/>
	<polygon class="st1" points="3693.9,979.1 3693.9,1178 3575.6,1119.7 3615.3,1016 	"/>
	<polygon class="st1" points="3692.4,158 3653.3,216.3 3653.3,203.7 3684.6,158 	"/>
	<polygon class="st1" points="3684.6,158 3653.3,203.7 3653.3,158 	"/>
	<polygon class="st1" points="3670.8,-197.1 3670.8,-161.2 3605,-189.6 3605,-197.1 	"/>
	<polygon class="st2" points="3572.3,-82.6 3447.6,-82.6 3447.6,-121.2 3558.3,-87.3 3597.6,-163.3 3653.6,-129.3 3631,-71.2 
		3621.6,-82.6 	"/>
	<polygon class="st1" points="3653.3,394 3653.3,474.1 3548.5,533.9 3520,505.9 3617.1,380.1 	"/>
	<polygon class="st1" points="3653.3,203.7 3653.3,216.3 3558.3,357.6 3549.9,354.4 	"/>
	<polygon class="st4" points="3653.3,158 3653.3,203.7 3549.9,354.4 3403.8,298.5 3574.4,158 	"/>
	<polygon class="st3" points="3653.3,93 3653.3,158 3574.4,158 	"/>
	<polygon class="st1" points="3653.3,77.4 3653.3,93 3574.4,158 3554.8,158 	"/>
	<polygon class="st1" points="3501.9,138.6 3501.9,128.5 3501.9,40.6 3501.9,32.6 3258.3,139 3258.3,122 3258.3,103 3352.3,75.4 
		3272.7,-55.6 3357.3,-120.6 3357.3,-148.9 3417.3,-130.5 3417.3,-82.6 3447.6,-82.6 3572.3,-82.6 3572.3,-30.6 3653.3,-30.6 
		3653.3,77.4 3554.8,158 3501.9,158 	"/>
	<polygon class="st6" points="3641.9,-892.8 3646,-861.5 3562.3,-811.6 3504.3,-857.6 3546.3,-730.6 3390.3,-839.3 3390.3,-844.8 
		3462.3,-825.6 3513.3,-891.6 3551.3,-843.6 	"/>
	<polygon class="st5" points="3618.3,-514.6 3517.9,-458.8 3351.9,-608.5 3390.3,-701.8 3390.3,-632.6 	"/>
	<polygon class="st1" points="3617.1,380.1 3520,505.9 3483.1,469.6 3558.3,357.6 	"/>
	<polygon class="st1" points="3615.3,1016 3575.6,1119.7 3487.1,1076.2 	"/>
	<polygon class="st6" points="3605,-250.6 3605,-197.1 3593.3,-197.1 3546.3,-139.6 3515.3,-184.1 3580.4,-250.6 	"/>
	<polygon class="st6" points="3505.3,-218.6 3505.3,-137.1 3461,-153.9 3447.6,-140.6 3447.6,-121.2 3417.3,-130.5 3417.3,-299.6 
		3474.3,-299.6 3474.3,-373.6 3605,-373.6 3605,-286.6 3573.3,-286.6 	"/>
	<polygon class="st6" points="3575.6,1119.7 3557.6,1166.5 3107.9,1102.6 3101.1,1038.3 3177.8,924 3347.1,1007.3 3412.3,1111.4 
		3487.1,1076.2 	"/>
	<polygon class="st1" points="3574.4,158 3403.8,298.5 3389.7,293.1 3554.8,158 	"/>
	<polygon class="st1" points="3558.3,357.6 3483.1,469.6 3475.8,462.3 3549.9,354.4 	"/>
	<polygon class="st3" points="3554.8,158 3389.7,293.1 3297.1,257.6 3501.9,138.6 3501.9,158 	"/>
	<polygon class="st6" points="3475.8,462.3 3344.7,653.4 3238.3,653.4 3195.2,470.2 3403.8,298.5 3549.9,354.4 	"/>
	<polygon class="st1" points="3520,505.9 3466.3,575.4 3466.3,653.4 3359.6,653.4 3483.1,469.6 	"/>
	<polygon class="st1" points="3474.3,-434.6 3474.3,-373.6 3417.3,-373.6 3417.3,-464.2 3304.4,-619.7 3241.7,-706 3252.9,-746.5 
		3326.4,-694 3303.1,-832.9 3390.3,-793.9 3390.3,-701.8 3351.9,-608.5 3517.9,-458.8 	"/>
	<polygon class="st2" points="3345.9,1486.9 2879.1,1822.9 2814.8,1545.5 3144.3,1545.5 3154.6,1545.5 3141.2,1417.9 3420.7,1311.9 
		3516.3,1367.4 3467.1,1607.3 3345.9,1752.9 	"/>
	<polygon class="st1" points="3501.9,128.5 3501.9,138.6 3297.1,257.6 3286.1,253.4 	"/>
	<polygon class="st3" points="3501.9,40.6 3501.9,128.5 3286.1,253.4 3258.3,242.8 3258.3,148.2 	"/>
	<polygon class="st1" points="3501.9,32.6 3501.9,40.6 3258.3,148.2 3258.3,139 	"/>
	<polygon class="st5" points="3487.1,1076.2 3412.3,1111.4 3347.1,1007.3 	"/>
	<polygon class="st1" points="3483.1,469.6 3359.6,653.4 3344.7,653.4 3475.8,462.3 	"/>
	<rect x="3417.3" y="-373.6" class="st1" width="57" height="74"/>
	<polygon class="st1" points="3447.6,-121.2 3447.6,-82.6 3417.3,-82.6 3417.3,-130.5 	"/>
	<polygon class="st6" points="3422.3,-779.6 3390.3,-701.8 3390.3,-793.9 	"/>
	<polygon class="st1" points="3357.3,-193.2 3357.3,-251.1 3357.3,-291.6 3357.3,-326.2 3374.3,-299.6 3417.3,-299.6 3417.3,-130.5 
		3357.3,-148.9 	"/>
	<polygon class="st1" points="3417.3,-373.6 3417.3,-299.6 3374.3,-299.6 3357.3,-326.2 3233.1,-520.5 3304.4,-619.7 3417.3,-464.2 
			"/>
	<polygon class="st1" points="3403.8,298.5 3195.2,470.2 3191.7,455.2 3389.7,293.1 	"/>
	<polygon class="st5" points="3389.7,293.1 3191.7,455.2 3163.5,335.3 3297.1,257.6 	"/>
	<polygon class="st1" points="3359.6,653.4 3177.8,924 3163.7,917.1 3344.7,653.4 	"/>
	<polygon class="st1" points="3357.3,-148.9 3357.3,-120.6 3272.7,-55.6 3256.3,-82.6 3206.4,-82.6 3283.8,-139.3 3357.3,-193.2 	
		"/>
	<polygon class="st1" points="3357.3,-251.1 3357.3,-193.2 3283.8,-139.3 3252.1,-177.1 3300.3,-208.6 3300.3,-251.1 	"/>
	<polygon class="st1" points="3357.3,-291.6 3357.3,-251.1 3300.3,-251.1 3300.3,-348.6 	"/>
	<polygon class="st6" points="3300.3,-348.6 3150.3,-498.6 2988.3,-498.6 2988.3,-529 3162.9,-529 3001.2,-682.6 2999.5,-757.1 
		3031.8,-678.6 3056.1,-701.2 3215.4,-496 3233.1,-520.5 3357.3,-326.2 3357.3,-291.6 	"/>
	<polygon class="st2" points="3272.7,-55.6 3352.3,75.4 3258.3,103 3258.3,-44.6 	"/>
	<polygon class="st1" points="3083.1,701.4 3083.1,562.5 3195.2,470.2 3238.3,653.4 3344.7,653.4 3163.7,917.1 3083.1,877.4 	"/>
	<polygon class="st1" points="3288.4,-765.6 3248.6,-857.2 3303.1,-832.9 3326.4,-694 3252.9,-746.5 3241.7,-706 3203.8,-758.2 	"/>
	<polygon class="st1" points="3241.7,-706 3304.4,-619.7 3233.1,-520.5 3150.9,-649 3150.9,-692.6 3222.9,-638.5 	"/>
	<polygon class="st1" points="3300.3,-251.1 3300.3,-208.6 3252.1,-177.1 3225.4,-208.9 3258.3,-232.6 3258.3,-251.1 	"/>
	<polygon class="st1" points="3136.3,-409.6 2988.3,-409.6 2988.3,-498.6 3150.3,-498.6 3300.3,-348.6 3300.3,-251.1 3258.3,-251.1 
		3258.3,-298.8 3230.8,-323.8 3205.1,-347.2 3145.3,-401.4 	"/>
	<polygon class="st1" points="3297.1,257.6 3163.5,335.3 3161.2,325.7 3286.1,253.4 	"/>
	<polygon class="st5" points="3258.3,242.8 3286.1,253.4 3161.2,325.7 3132.5,203.7 3258.3,148.2 	"/>
	<polygon class="st1" points="2786.1,-204.5 2873,-137.5 2927.3,-95.6 3127.3,-95.6 3252.1,-177.1 3283.8,-139.3 3206.4,-82.6 
		2791.3,-82.6 2763.9,-82.6 2738.2,-134.4 2760.3,-135.6 2777.9,-210.9 	"/>
	<polygon class="st1" points="3256.3,-82.6 3272.7,-55.6 3258.3,-44.6 3258.3,103 3118.5,144.1 3110.3,109.4 3083.1,109.4 
		3083.1,7.8 3206.4,-82.6 	"/>
	<polygon class="st1" points="3258.3,139 3258.3,148.2 3132.5,203.7 3130.4,194.9 	"/>
	<polygon class="st5" points="3258.3,122 3258.3,139 3130.4,194.9 3122.4,161 	"/>
	<polygon class="st1" points="3258.3,103 3258.3,122 3122.4,161 3118.5,144.1 	"/>
	<polygon class="st6" points="3168.9,-276.2 3145.3,-252.6 3145.3,-346.9 3205.1,-347.2 3230.8,-323.8 3230.8,-251.1 3258.3,-251.1 
		3258.3,-232.6 3225.4,-208.9 	"/>
	<polygon class="st1" points="3258.3,-298.8 3258.3,-251.1 3230.8,-251.1 3230.8,-323.8 	"/>
	<polygon class="st3" points="3225.4,-208.9 3252.1,-177.1 3127.3,-95.6 2927.3,-95.6 2873,-137.5 2873,-155.6 2968.3,-103.6 
		3079.3,-103.6 	"/>
	<polygon class="st1" points="3150.9,-649 3233.1,-520.5 3215.4,-496 3056.1,-701.2 3093.4,-735.8 3150.9,-692.6 	"/>
	<polygon class="st2" points="3053.3,-160.6 3145.3,-252.6 3168.9,-276.2 3225.4,-208.9 3079.3,-103.6 2968.3,-103.6 2873,-155.6 
		2873,-239.3 2919.8,-239.3 2919.8,-231.6 2990.8,-160.6 	"/>
	<polygon class="st4" points="3083.1,7.8 3083.1,109.4 2791.3,109.4 2791.3,-82.6 3206.4,-82.6 	"/>
	<polygon class="st1" points="3205.1,-347.2 3145.3,-346.9 3145.3,-401.4 	"/>
	<polygon class="st1" points="3191.7,455.2 3195.2,470.2 3083.1,562.5 3083.1,544 	"/>
	<polygon class="st1" points="3163.5,335.3 3191.7,455.2 3083.1,544 3083.1,382.1 	"/>
	<polygon class="st1" points="3177.8,924 3101.1,1038.3 3107.9,1102.6 3099,1101.3 3091,1023 3163.7,917.1 	"/>
	<polygon class="st4" points="3091,1023 3099,1101.3 2888.1,1071.3 2824.8,866.6 2855.1,750.3 2914.4,701.4 3083.1,701.4 
		3083.1,877.4 3163.7,917.1 	"/>
	<polygon class="st1" points="3161.2,325.7 3163.5,335.3 3083.1,382.1 3083.1,370.9 	"/>
	<polygon class="st3" points="3162.9,-529 2988.3,-529 2988.3,-542.5 2985.9,-542.5 2826.7,-597.8 2850.8,-638.3 2927.4,-587.5 
		2889.9,-664 3071.4,-578.5 3002.4,-629.5 3001.2,-682.6 	"/>
	<polygon class="st1" points="3132.5,203.7 3161.2,325.7 3083.1,370.9 3083.1,225.6 	"/>
	<polygon class="st1" points="3141.2,1417.9 3154.6,1545.5 3144.3,1545.5 3131.6,1421.5 	"/>
	<polygon class="st1" points="3150.9,-789.2 3150.9,-692.6 3093.4,-735.8 	"/>
	<polygon class="st1" points="3079.6,-306.6 3079.6,-346.6 3145.3,-346.9 3145.3,-252.6 3053.3,-160.6 2990.8,-160.6 2919.8,-231.6 
		2919.8,-239.3 2919.8,-293.1 2972.7,-346 2988.3,-346.1 2988.3,-306.6 	"/>
	<polygon class="st1" points="3145.3,-401.4 3145.3,-346.9 3079.6,-346.6 3079.6,-393 2988.3,-393 2988.3,-409.6 3136.3,-409.6 	"/>
	<polygon class="st4" points="2829.2,1235.4 2981.1,1185.3 2963.1,1485.3 3131.6,1421.5 3144.3,1545.5 2814.8,1545.5 2784.1,1412.8 
		2749,1261.8 	"/>
	<polygon class="st1" points="3107.9,1102.6 3141.2,1417.9 3131.6,1421.5 3099,1101.3 	"/>
	<polygon class="st1" points="3130.4,194.9 3132.5,203.7 3083.1,225.6 3083.1,215.5 	"/>
	<polygon class="st3" points="3099,1101.3 3131.6,1421.5 2963.1,1485.3 2981.1,1185.3 2829.2,1235.4 2767.9,1085.8 2824.8,866.6 
		2888.1,1071.3 	"/>
	<polygon class="st1" points="3122.4,161 3130.4,194.9 3083.1,215.5 3083.1,172.3 	"/>
	<polygon class="st1" points="3118.5,144.1 3122.4,161 3083.1,172.3 3083.1,154.5 	"/>
	<polygon class="st1" points="3110.3,109.4 3118.5,144.1 3083.1,154.5 3083.1,109.4 	"/>
	<polygon class="st6" points="3083.1,562.5 3083.1,701.4 2914.4,701.4 	"/>
	<polygon class="st1" points="3083.1,544 3083.1,562.5 2914.4,701.4 2890.8,701.4 	"/>
	<polygon class="st2" points="3083.1,382.1 3083.1,544 2890.8,701.4 2773.9,701.4 2737.3,583.1 	"/>
	<polygon class="st1" points="3083.1,370.9 3083.1,382.1 2737.3,583.1 2734.2,572.9 	"/>
	<polygon class="st2" points="3083.1,225.6 3083.1,370.9 2734.2,572.9 2706.7,484 2710.4,390.1 	"/>
	<polygon class="st1" points="3083.1,215.5 3083.1,225.6 2710.4,390.1 2710.8,378.1 	"/>
	<polygon class="st2" points="3083.1,172.3 3083.1,215.5 2710.8,378.1 2712.9,324.5 2663.5,344 2649,296.9 	"/>
	<polygon class="st1" points="3083.1,154.5 3083.1,172.3 2649,296.9 2644.8,283.3 	"/>
	<polygon class="st5" points="2791.3,109.4 3083.1,109.4 3083.1,154.5 2644.8,283.3 2575.7,59.4 2636.3,59.4 2710.8,-82.6 
		2763.9,-82.6 2791.3,-82.6 	"/>
	<polygon class="st1" points="3079.6,-346.6 3079.6,-306.6 2988.3,-306.6 2988.3,-346.1 	"/>
	<polygon class="st2" points="3079.6,-393 3079.6,-346.6 2988.3,-346.1 2988.3,-393 	"/>
	<polygon class="st4" points="2972.7,-346 2919.8,-293.1 2908.1,-281.4 2882.7,-306.8 2944.4,-393 2988.3,-393 2988.3,-346.1 	"/>
	<polygon class="st1" points="2988.3,-409.6 2988.3,-393 2944.4,-393 2956.3,-409.6 	"/>
	<polygon class="st1" points="2956.3,-409.6 2944.4,-393 2882.7,-306.8 2840.3,-247.6 2858.3,-163.6 2873,-155.6 2873,-137.5 
		2786.1,-204.5 2928.3,-498.6 2988.3,-498.6 2988.3,-409.6 	"/>
	<polygon class="st4" points="2988.3,-529 2988.3,-498.6 2928.3,-498.6 2786.1,-204.5 2777.9,-210.9 2807.1,-335.6 2846.4,-404.5 
		2827.7,-423.2 2852.4,-529 	"/>
	<polygon class="st1" points="2827.7,-423.2 2807.1,-335.6 2730.9,-202 2631.6,-241 2642.8,-270.1 2610.8,-322.1 2574.9,-380.5 
		2681.4,-361 2672.4,-424 2723.4,-424 2747.7,-464.8 2766.6,-496.6 2795.6,-545.5 2826.7,-597.8 2985.9,-542.5 2988.3,-542.5 
		2988.3,-529 2852.4,-529 	"/>
	<polygon class="st1" points="2908.1,-281.4 2919.8,-293.1 2919.8,-239.3 2873,-239.3 2873,-155.6 2858.3,-163.6 2840.3,-247.6 
		2882.7,-306.8 	"/>
	<polygon class="st1" points="2914.4,701.4 2855.1,750.3 2824.8,866.6 2817,841 2844.2,739.5 2890.8,701.4 	"/>
	<polygon class="st1" points="2890.8,701.4 2844.2,739.5 2817,841 2773.9,701.4 	"/>
	<polygon class="st6" points="2850.8,-638.3 2826.7,-597.8 2739.9,-628 2778.9,-628 2796.9,-628 2783.7,-682.9 	"/>
	<polygon class="st6" points="2846.4,-404.5 2807.1,-335.6 2827.7,-423.2 	"/>
	<polygon class="st5" points="2767.9,1085.8 2829.2,1235.4 2749,1261.8 2734.6,1199.4 	"/>
	<polygon class="st1" points="2826.7,-597.8 2795.6,-545.5 2721.9,-545.5 2721.9,-671.3 2778.9,-628 2739.9,-628 	"/>
	<polygon class="st1" points="2817,841 2824.8,866.6 2767.9,1085.8 2757.8,1061.1 	"/>
	<polygon class="st1" points="2773.9,701.4 2817,841 2757.8,1061.1 2660,822.3 2603,846.3 2603,661.2 2702.1,603.6 2698.3,701.4 	
		"/>
	<polygon class="st1" points="2784.1,1412.8 2814.8,1545.5 2686.7,1545.5 	"/>
	<polygon class="st5" points="2777.9,-210.9 2760.3,-135.6 2738.2,-134.4 2720.3,-170.6 2535.4,-71 2507.9,-160 2546.3,-160 
		2600.4,-160 2631.6,-241 2730.9,-202 2807.1,-335.6 	"/>
	<polygon class="st5" points="2795.6,-545.5 2766.6,-496.6 2717.8,-496.6 2546.3,-679.2 2546.3,-805.1 2721.9,-671.3 2721.9,-545.5 
			"/>
	<polygon class="st0" points="2485.8,971.4 2674.3,939.4 2728.1,1171.6 2734.6,1199.4 2749,1261.8 2784.1,1412.8 2686.7,1545.5 
		2156.3,1545.5 2156.3,311.4 2363.6,311.4 2355.2,368.4 2353.2,381.8 2344.2,442.8 2413.2,508.2 2422.7,517.2 2488.6,579.6 
		2469,658.1 2449.1,737.9 2445.4,752.8 2428.3,821.4 2550.3,821.4 	"/>
	<polygon class="st1" points="2737.3,583.1 2773.9,701.4 2698.3,701.4 2702.1,603.6 	"/>
	<polygon class="st1" points="2757.8,1061.1 2767.9,1085.8 2734.6,1199.4 2728.1,1171.6 	"/>
	<polygon class="st1" points="2766.6,-496.6 2747.7,-464.8 2717.8,-496.6 	"/>
	<polygon class="st1" points="2710.8,-82.6 2636.3,59.4 2575.7,59.4 2555.9,-4.5 2682.9,-131.5 2738.2,-134.4 2763.9,-82.6 	"/>
	<polygon class="st2" points="2660,822.3 2757.8,1061.1 2728.1,1171.6 2674.3,939.4 2485.8,971.4 2550.3,821.4 2428.3,821.4 
		2445.4,752.8 2603,661.2 2603,846.3 	"/>
	<polygon class="st1" points="2747.7,-464.8 2723.4,-424 2672.4,-424 2681.4,-361 2574.9,-380.5 2610.8,-322.1 2546.3,-286.7 
		2546.3,-496.6 2717.8,-496.6 	"/>
	<polygon class="st1" points="2720.3,-170.6 2738.2,-134.4 2682.9,-131.5 2555.9,-4.5 2535.4,-71 	"/>
	<polygon class="st1" points="2734.2,572.9 2737.3,583.1 2702.1,603.6 2702.6,591.2 	"/>
	<polygon class="st1" points="2706.7,484 2734.2,572.9 2702.6,591.2 	"/>
	<polygon class="st1" points="2546.3,-679.2 2717.8,-496.6 2546.3,-496.6 	"/>
	<polygon class="st1" points="2712.9,324.5 2710.8,378.1 2678.4,392.3 2663.5,344 	"/>
	<polygon class="st1" points="2710.8,378.1 2710.4,390.1 2681.7,402.8 2678.4,392.3 	"/>
	<polygon class="st1" points="2710.4,390.1 2706.7,484 2681.7,402.8 	"/>
	<polygon class="st1" points="2681.7,402.8 2706.7,484 2702.6,591.2 2603,648.8 2603,612.2 2603,595.5 2664.3,514.4 2557.8,457.5 	
		"/>
	<polygon class="st1" points="2702.6,591.2 2702.1,603.6 2603,661.2 2603,648.8 	"/>
	<polygon class="st0" points="2686.7,1545.5 2299.5,2073.4 2156.3,2073.4 2156.3,1545.5 	"/>
	<polygon class="st1" points="2678.4,392.3 2681.7,402.8 2557.8,457.5 2544.9,450.6 	"/>
	<polygon class="st3" points="2523.6,439.2 2517.8,462.5 2413.2,508.2 2344.2,442.8 2353.2,381.8 2533.7,330 2533.7,395.4 
		2663.5,344 2678.4,392.3 2544.9,450.6 	"/>
	<polygon class="st5" points="2664.3,514.4 2603,595.5 2603,562.4 2527.5,616.4 2488.6,579.6 2514.2,476.7 2557.8,457.5 	"/>
	<polygon class="st1" points="2649,296.9 2663.5,344 2533.7,395.4 2533.7,330 	"/>
	<polygon class="st1" points="2644.8,283.3 2649,296.9 2533.7,330 2533.7,316 	"/>
	<polygon class="st6" points="2575.7,59.4 2644.8,283.3 2533.7,316 2533.7,248 2533.7,59.4 	"/>
	<polygon class="st1" points="2631.6,-241 2600.4,-160 2546.3,-160 2546.3,-286.7 2610.8,-322.1 2642.8,-270.1 	"/>
	<polygon class="st1" points="2603,612.2 2603,648.8 2449.1,737.9 2469,658.1 2527.5,616.4 2562.3,649.4 2603,595.5 	"/>
	<polygon class="st4" points="2603,562.4 2603,595.5 2562.3,649.4 2527.5,616.4 	"/>
	<polygon class="st1" points="2555.9,-4.5 2575.7,59.4 2533.7,59.4 2533.7,17.8 	"/>
	<polygon class="st1" points="2557.8,457.5 2514.2,476.7 2517.8,462.5 2544.9,450.6 	"/>
	<polygon class="st1" points="2533.7,17.8 2533.7,59.4 2483.5,59.4 2473.9,59.4 2486.3,-44.6 2535.4,-71 2555.9,-4.5 	"/>
	<polygon class="st2" points="2507.9,-160 2535.4,-71 2486.3,-44.6 2473.9,59.4 2448.3,59.4 2448.3,-204.6 2342.7,-204.6 
		2200,-485.5 2077.1,-485.5 2030,-579.3 2108.3,-808.6 2132.3,-799.2 2132.3,-580.6 2468.8,-244.1 2546.3,-286.7 2546.3,-160 	"/>
	<polygon class="st3" points="2546.3,-496.6 2546.3,-286.7 2468.8,-244.1 2132.3,-580.6 2132.3,-799.2 2462.3,-670.6 2462.3,-496.6 
			"/>
	<polygon class="st6" points="2546.3,-679.2 2546.3,-496.6 2462.3,-496.6 2462.3,-670.6 2132.3,-799.2 2132.3,-866.6 2370.3,-866.6 
			"/>
	<polygon class="st4" points="2546.3,-805.1 2546.3,-679.2 2370.3,-866.6 2132.3,-866.6 2132.3,-914.6 2330,-969.8 	"/>
	<polygon class="st1" points="2523.6,439.2 2544.9,450.6 2517.8,462.5 	"/>
	<polygon class="st1" points="2533.7,316 2533.7,330 2353.2,381.8 2355.2,368.4 	"/>
	<polygon class="st4" points="2533.7,248 2533.7,316 2355.2,368.4 2363.6,311.4 2444,311.4 2473.9,59.4 2483.5,59.4 2533.7,59.4 	
		"/>
	<polygon class="st1" points="2488.6,579.6 2527.5,616.4 2469,658.1 	"/>
	<polygon class="st1" points="2517.8,462.5 2514.2,476.7 2422.7,517.2 2413.2,508.2 	"/>
	<polygon class="st1" points="2422.7,517.2 2514.2,476.7 2488.6,579.6 	"/>
	<polygon class="st5" points="2448.3,59.4 2473.9,59.4 2444,311.4 2363.6,311.4 2389.2,137.5 2350.1,59.4 2444,59.4 	"/>
	<polygon class="st1" points="2448.3,-204.6 2448.3,59.4 2444,59.4 2350.1,59.4 2269.3,-101.8 2309.4,-142 2396.4,29 2429.4,-34 
		2342.7,-204.6 	"/>
	<polygon class="st6" points="2342.7,-204.6 2429.4,-34 2396.4,29 2309.4,-142 2269.3,-101.8 2217.8,-204.6 	"/>
	<polygon class="st0" points="2269.3,-101.8 2350.1,59.4 2389.2,137.5 2363.6,311.4 2156.3,311.4 2156.3,1545.5 2042.9,1545.5 
		1848.3,1545.5 1686.8,1545.5 1686.8,-866.6 2004.3,-866.6 2004.3,-630.7 2030,-579.3 2077.1,-485.5 2217.8,-204.6 	"/>
	<polygon class="st5" points="2200,-485.5 2342.7,-204.6 2217.8,-204.6 2077.1,-485.5 	"/>
	<polygon class="st2" points="2132.3,-914.6 2132.3,-866.6 2004.3,-866.6 2004.3,-947.1 2074,-935.5 1958.5,-1028.4 2252.9,-1028.4 
		2330,-969.8 	"/>
	<polygon class="st5" points="2132.3,-866.6 2132.3,-799.2 2108.3,-808.6 2030,-579.3 2004.3,-630.7 2004.3,-866.6 	"/>
</g>
</svg>
