<?xml version="1.0" encoding="utf-8"?>
<!-- Generator: Adobe Illustrator 19.0.0, SVG Export Plug-In . SVG Version: 6.00 Build 0)  -->
<svg version="1.1" id="Calque_1" xmlns="http://www.w3.org/2000/svg" xmlns:xlink="http://www.w3.org/1999/xlink" x="0px" y="0px"
	 viewBox="1520 -1720 4000 4000" style="enable-background:new 1520 -1720 4000 4000;" xml:space="preserve">
<style type="text/css">
	.st0{fill:none;}
	.st1{fill:#130524;}
	.st2{fill:#95FFF8;}
</style>
<g id="Layer_3">
	<path class="st0" d="M5536.7,2289.6h-4000v-4000h4000V2289.6z"/>
</g>
<g id="Layer_2">
	<polygon class="st0" points="4490.5,-424.2 4465,-424.2 4465,-525 4537,-681 4532.3,-762.6 4520.9,-962.2 4512.1,-1117 5393,-1117 
		5393,1593.5 4977,1593.5 4977,743.6 4977,731.4 4977,407.9 4977,396.7 4977,223.8 4977,213.4 4977,45 4977,37 4977,-230 
		4670.8,-230 4589,-349.5 4577.4,-354.2 4510.5,-381.5 4510.5,-424.2 	"/>
	<polygon class="st0" points="4977,1593.5 4977,2083 4663.8,2083 4608.6,1593.5 	"/>
	<polygon class="st0" points="4839,975.5 4844.7,969.9 4601.2,708.8 4699.3,557.5 4977,743.6 4977,1593.5 4608.6,1593.5 4573,1277 
		4713.2,1255 4684.4,1211 4593.4,1072.5 4730.3,1029 4709.4,998.8 4556.1,778.2 4596.3,716.3 	"/>
	<polygon class="st1" points="4977,731.4 4977,743.6 4699.3,557.5 4704.7,549.1 	"/>
	<polygon class="st0" points="4763.1,459.2 4807.4,390.8 4761.9,390.8 4766.3,338.6 4977,407.9 4977,731.4 4704.7,549.1 	"/>
	<polygon class="st1" points="4977,396.7 4977,407.9 4766.3,338.6 4767.1,328.3 	"/>
	<polygon class="st0" points="4830.4,209.4 4835.6,146.9 5033.9,182.2 5033.9,355.1 4824.1,286.6 	"/>
	<polygon class="st1" points="4977,213.4 4977,223.8 4778.7,188.6 4779.5,179.2 	"/>
	<polygon class="st0" points="4977,45 4977,213.4 4779.5,179.2 4790.6,45 	"/>
	<polygon class="st1" points="4977,37 4977,45 4790.6,45 4791.2,37 	"/>
	<polygon class="st0" points="4725,-150.8 4719.7,-158.6 4670.8,-230 4977,-230 4977,37 4791.2,37 4798,-44.2 	"/>
	<polygon class="st1" points="4844.7,969.9 4839,975.5 4596.3,716.3 4601.2,708.8 	"/>
	<polygon class="st1" points="4721.9,418 4630.5,499.5 4609.1,485.1 4601.5,284.4 4766.3,338.6 4761.9,390.8 4807.4,390.8 
		4763.1,459.2 	"/>
	<polygon class="st1" points="4725,-150.8 4798,-44.2 4791.2,37 4592.2,37 4586.3,-117.9 	"/>
	<polygon class="st1" points="4791.2,37 4790.6,45 4592.5,45 4592.2,37 	"/>
	<polygon class="st1" points="4790.6,45 4779.5,179.2 4596.3,147.5 4592.5,45 	"/>
	<polygon class="st1" points="4779.5,179.2 4778.7,188.6 4596.7,156.2 4596.3,147.5 	"/>
	<polygon class="st1" points="4778.7,188.6 4773.5,251 4600.2,251 4596.7,156.2 	"/>
	<polygon class="st1" points="4773.5,251 4767.1,328.3 4601.1,274.1 4600.2,251 	"/>
	<polygon class="st1" points="4767.1,328.3 4766.3,338.6 4601.5,284.4 4601.1,274.1 	"/>
	<polygon class="st1" points="4763.1,459.2 4704.7,549.1 4630.5,499.5 4721.9,418 	"/>
	<polygon class="st1" points="4593.4,1072.5 4565.6,1081.3 4523.8,1211 4369,1211 4369,1078.3 4518.9,1026.9 4455.9,906.9 
		4709.4,998.8 4730.3,1029 	"/>
	<polygon class="st1" points="4719.7,-158.6 4725,-150.8 4586.3,-117.9 4586,-126.6 	"/>
	<polygon class="st1" points="4670.8,-230 4719.7,-158.6 4586,-126.6 4582.1,-230 	"/>
	<polygon class="st1" points="4371,1479.1 4430.5,1501 4476.1,1359.4 4478.5,1352 4523.8,1211 4684.4,1211 4713.2,1255 4573,1277 
		4608.6,1593.5 4527,1593.5 4527,1828 4282.2,1828 4223.5,1424.7 	"/>
	<polygon class="st1" points="4556.1,778.2 4709.4,998.8 4455.9,906.9 4518.9,1026.9 4369,1078.3 4369,813 4369,756.8 4498.5,695.2 
			"/>
	<polygon class="st1" points="4704.7,549.1 4699.3,557.5 4622.8,506.3 4630.5,499.5 	"/>
	<polygon class="st1" points="4699.3,557.5 4601.2,708.8 4560.9,665.6 4614.9,639.9 4610.3,517.5 4622.8,506.3 	"/>
	<polygon class="st1" points="4593.4,1072.5 4684.4,1211 4523.8,1211 4565.6,1081.3 	"/>
	<polygon class="st1" points="4589,-349.5 4670.8,-230 4582.1,-230 4578.4,-327 4577.4,-354.2 	"/>
	<polygon class="st0" points="4282.2,1828 4527,1828 4527,1593.5 4608.6,1593.5 4663.8,2083 2316.2,2083 2703.4,1555.1 
		2831.5,1555.1 2895.8,1832.5 3362.6,1496.5 3362.6,1762.5 3483.8,1616.9 3710.6,1344.2 3710.6,1218 3710.6,1187.6 3710.6,988.7 
		3632,1025.6 3503.8,1085.8 3363.8,1016.9 3194.5,933.6 3376.3,663 3483,663 3483,585 3536.7,515.5 3565.2,543.5 3670,483.7 
		3780,421 3903,421 3941.7,342.4 4050,410.5 4085.6,432.8 4227.5,522.1 4369,611 4369,675.8 4214.4,830.4 4017.7,924 3752.9,919.6 
		3777.6,1038.1 3825,1265 4081,1177.2 4081,1213 4451.4,1350.2 4145.6,1330.5 4371,1439 4371,1479.1 4223.5,1424.7 	"/>
	<polygon class="st1" points="4630.5,499.5 4622.8,506.3 4609.5,497.4 4609.1,485.1 	"/>
	<polygon class="st1" points="4622.8,506.3 4610.3,517.5 4609.5,497.4 	"/>
	<polygon class="st1" points="4610.3,517.5 4614.9,639.9 4560.9,665.6 4507.9,608.8 	"/>
	<polygon class="st1" points="4609.5,497.4 4610.3,517.5 4507.9,608.8 4473.2,571.6 4497.9,546.8 4461.8,398.4 	"/>
	<polygon class="st1" points="4609.1,485.1 4609.5,497.4 4461.8,398.4 4458.4,384.2 	"/>
	<polygon class="st1" points="4601.5,284.4 4609.1,485.1 4458.4,384.2 4426,251 4500,251 	"/>
	<polygon class="st1" points="4601.1,274.1 4601.5,284.4 4500,251 4530.1,251 	"/>
	<polygon class="st1" points="4600.2,251 4601.1,274.1 4530.1,251 	"/>
	<polygon class="st1" points="4596.7,156.2 4600.2,251 4530.1,251 4417,214.1 4394.2,120.3 	"/>
	<polygon class="st1" points="4596.3,147.5 4596.7,156.2 4394.2,120.3 4392.3,112.2 	"/>
	<polygon class="st1" points="4592.5,45 4596.3,147.5 4392.3,112.2 4375.9,45 	"/>
	<polygon class="st1" points="4552.5,669.6 4596.3,716.3 4556.1,778.2 4498.5,695.2 	"/>
	<polygon class="st1" points="4592.2,37 4592.5,45 4375.9,45 4374,37 	"/>
	<polygon class="st1" points="4586.3,-117.9 4592.2,37 4374,37 4349.9,-61.9 	"/>
	<polygon class="st1" points="4586,-126.6 4586.3,-117.9 4349.9,-61.9 4348,-69.6 	"/>
	<polygon class="st1" points="4333,-230 4582.1,-230 4586,-126.6 4348,-69.6 4338.9,-107.2 4137,-188.6 4137,-225.9 4195,-212 
		4333,-297.3 	"/>
	<polygon class="st2" points="4578.4,-327 4582.1,-230 4333,-230 4333,-297.3 4373,-322 4445,-322 4468.5,-374.8 	"/>
	<polygon class="st1" points="4577.4,-354.2 4578.4,-327 4578.4,-327 4468.5,-374.8 4490.5,-424.2 4510.5,-424.2 4510.5,-381.5 	"/>
	<polygon class="st1" points="4507.9,608.8 4560.9,665.6 4552.5,669.6 4501.2,614.8 	"/>
	<polygon class="st1" points="4501.2,614.8 4552.5,669.6 4498.5,695.2 4465,647 	"/>
	<polygon class="st1" points="4532.3,-762.6 4537,-681 4465,-525 4465,-424.2 4433.8,-424.2 4433.8,-424.2 4373,-477.6 4373,-637.3 
		4489,-719 4471.7,-788.9 	"/>
	<polygon class="st1" points="4520.9,-962.2 4532.3,-762.6 4471.7,-788.9 4431,-953 4443.8,-1014.2 	"/>
	<polygon class="st1" points="4530.1,251 4500,251 4419.6,224.5 4417,214.1 	"/>
	<polygon class="st1" points="4369,1211 4523.8,1211 4478.5,1352 4451.4,1350.2 4081,1213 4081,1177.2 4369,1078.3 	"/>
	<polygon class="st1" points="4512.1,-1117 4520.9,-962.2 4443.8,-1014.2 4465.4,-1117 	"/>
	<polygon class="st1" points="4503.8,-1263.3 4512.1,-1117 4465.4,-1117 4475,-1163 4346,-1231.9 4415,-1315 	"/>
	<polygon class="st1" points="4473.2,571.6 4507.9,608.8 4501.2,614.8 4466.8,578 	"/>
	<polygon class="st1" points="4466.8,578 4501.2,614.8 4465,647 4498.5,695.2 4369,756.8 4369,675.8 	"/>
	<polygon class="st1" points="4500,251 4426,251 4419.6,224.5 	"/>
	<polygon class="st1" points="4461.8,398.4 4497.9,546.8 4473.2,571.6 4305.2,391.4 4346.8,321.3 	"/>
	<polygon class="st1" points="4465,-424.2 4490.5,-424.2 4468.5,-374.8 4373,-416.4 4373,-477.6 4433.8,-424.2 4433.8,-424.2 	"/>
	<polygon class="st1" points="4471.7,-788.9 4489,-719 4373,-637.3 4373,-674 4211,-715 4211,-769 4172.6,-761.1 4172.6,-853.9 
		4309,-717.4 4408,-816.4 	"/>
	<polygon class="st1" points="4476.1,1359.4 4430.5,1501 4371,1479.1 4371,1439 4145.6,1330.5 4451.4,1350.2 	"/>
	<polygon class="st1" points="4317,-1117 4140.6,-885.8 4096,-930.4 4346,-1231.9 4475,-1163 4465.4,-1117 	"/>
	<polygon class="st1" points="4305.2,391.4 4473.2,571.6 4466.8,578 4300,400 	"/>
	<polygon class="st1" points="4431,-953 4471.7,-788.9 4408,-816.4 4309,-717.4 4172.6,-853.9 4172.6,-896.9 4394.5,-1047.3 
		4443.8,-1014.2 	"/>
	<polygon class="st1" points="4373,-416.4 4468.5,-374.8 4445,-322 4373,-322 4333,-297.3 4333,-343.4 4333,-379.7 4333,-433.8 	"/>
	<polygon class="st1" points="4300,400 4466.8,578 4369,675.8 4369,611 4227.5,522.1 	"/>
	<polygon class="st2" points="4172.6,-896.9 4172.6,-853.9 4140.6,-885.8 4317,-1117 4465.4,-1117 4443.8,-1014.2 4394.5,-1047.3 	
		"/>
	<polygon class="st1" points="4458.4,384.2 4461.8,398.4 4346.8,321.3 4351.9,312.9 	"/>
	<polygon class="st1" points="4426,251 4458.4,384.2 4351.9,312.9 4388.7,251 4416,251 	"/>
	<polygon class="st1" points="4419.6,224.5 4426,251 4416,251 4388.7,251 4397,237 4378.3,211 	"/>
	<polygon class="st1" points="4417,214.1 4419.6,224.5 4378.3,211 4369.5,198.6 	"/>
	<polygon class="st1" points="4394.2,120.3 4417,214.1 4369.5,198.6 4301.5,103.8 	"/>
	<polygon class="st1" points="4378.3,211 4397,237 4388.7,251 4259.3,251 4137,169.1 4137,131.6 	"/>
	<polygon class="st1" points="4392.3,112.2 4394.2,120.3 4301.5,103.8 4295.5,95.5 	"/>
	<polygon class="st1" points="4375.9,45 4392.3,112.2 4295.5,95.5 4259.3,45 	"/>
	<polygon class="st2" points="4388.7,251 4351.9,312.9 4259.3,251 	"/>
	<polygon class="st1" points="4369.5,198.6 4378.3,211 4137,131.6 4137,122.8 	"/>
	<polygon class="st1" points="4374,37 4375.9,45 4259.3,45 4253.6,37 	"/>
	<polygon class="st1" points="4349.9,-61.9 4374,37 4253.6,37 4207,-28 	"/>
	<polygon class="st1" points="4333,-433.8 4333,-379.7 4304,-379.7 4304,-441 4207.8,-557.8 4242.4,-592.4 4373,-477.6 4373,-416.4 
			"/>
	<polygon class="st1" points="4373,-637.3 4373,-477.6 4242.4,-592.4 4166.9,-658.9 4103,-715 3996,-644 3999.1,-703.9 4071,-794.5 
		4085,-743 4172.6,-761.1 4211,-769 4211,-715 4373,-674 	"/>
	<polygon class="st1" points="4301.5,103.8 4369.5,198.6 4137,122.8 4137,104 4137,74.6 	"/>
	<polygon class="st1" points="4369,813 4369,1078.3 4081,1177.2 4081,963.8 4214.4,830.4 4369,756.8 	"/>
	<polygon class="st1" points="4369,675.8 4369,756.8 4214.4,830.4 	"/>
	<polygon class="st1" points="4351.9,312.9 4346.8,321.3 4241.9,251 4259.3,251 	"/>
	<polygon class="st1" points="4348,-69.6 4349.9,-61.9 4207,-28 4202.2,-34.6 	"/>
	<polygon class="st2" points="4338.9,-107.2 4348,-69.6 4202.2,-34.6 4137,-125.5 4137,-188.6 	"/>
	<polygon class="st2" points="4305.2,391.4 4300,400 4227.5,522.1 4085.6,432.8 4085.6,339.4 4137,379.1 4137,251 4241.9,251 
		4346.8,321.3 	"/>
	<polygon class="st1" points="4304,-326.4 4333,-343.4 4333,-297.3 4195,-212 4137,-225.9 4137,-262 4194.4,-262 4194.4,-262 	"/>
	<polygon class="st1" points="4333,-379.7 4333,-343.4 4304,-326.4 4304,-379.7 	"/>
	<polygon class="st1" points="4181.1,-276 4263,-337 4263,-379.7 4304,-379.7 4304,-326.4 4194.4,-262 4194.4,-262 4137,-262 
		4137,-276 	"/>
	<polygon class="st1" points="4263,-461.7 4186,-536 4207.8,-557.8 4304,-441 4304,-379.7 4263,-379.7 4263,-393.7 	"/>
	<polygon class="st1" points="4295.5,95.5 4301.5,103.8 4137,74.6 4137,68 	"/>
	<polygon class="st1" points="4259.3,45 4295.5,95.5 4137,68 4137,45 	"/>
	<polygon class="st1" points="4137,-276 4085,-276 4038.2,-312.5 4062.9,-351.9 4100,-317 4150.3,-317 4172.6,-317 4207.7,-379.7 
		4263,-379.7 4263,-337 4181.1,-276 	"/>
	<polygon class="st1" points="4263,-393.7 4263,-379.7 4207.7,-379.7 4172.6,-317 4150.3,-317 4217,-405 4171.9,-488 4194.1,-488 	
		"/>
	<polygon class="st1" points="4194.1,-488 4171.9,-488 4160,-510 4186,-536 4263,-461.7 4263,-393.7 	"/>
	<polygon class="st1" points="4259.3,251 4241.9,251 4137,180.7 4137,169.1 	"/>
	<polygon class="st1" points="4253.6,37 4259.3,45 4137,45 4137,37 	"/>
	<polygon class="st1" points="4207,-28 4253.6,37 4137,37 4137,-11.4 	"/>
	<polygon class="st1" points="4242.4,-592.4 4207.8,-557.8 4124.4,-658.9 4166.9,-658.9 	"/>
	<polygon class="st1" points="4241.9,251 4137,251 4137,180.7 	"/>
	<path class="st1" d="M4062.9-351.9l-99.2-93.4l25-29.7l71.3,36l27.5-49h84.4l45.1,83l-66.7,88H4100L4062.9-351.9z M4175.7-436.7
		V-456h-19.3v19.3H4175.7z"/>
	<polygon class="st1" points="4214.4,830.4 4081,963.8 4081,925 4017.7,924 	"/>
	<polygon class="st1" points="3917.3,-390.1 3901,-370.9 3887.3,-384.9 3887.3,-483 3887.3,-526.9 4040.6,-658.9 4124.4,-658.9 
		4207.8,-557.8 4186,-536 4161,-560 4060.3,-560 4043.8,-540.4 3999.6,-488 3988.7,-475 3963.8,-445.4 	"/>
	<polygon class="st1" points="4202.2,-34.6 4207,-28 4137,-11.4 4137,-19 	"/>
	<polygon class="st1" points="4137,-125.5 4202.2,-34.6 4137,-19 	"/>
	<polygon class="st1" points="4186,-536 4160,-510 4171.9,-488 4087.5,-488 4105.5,-520 4043.8,-540.4 4060.3,-560 4161,-560 	"/>
	<rect x="4156.3" y="-456" class="st1" width="19.3" height="19.3"/>
	<polygon class="st1" points="4172.6,-853.9 4172.6,-761.1 4085,-743 4071,-794.5 4140.6,-885.8 	"/>
	<polygon class="st2" points="4124.4,-658.9 4040.6,-658.9 3887.3,-526.9 3887.3,-563 3999.1,-703.9 3996,-644 4103,-715 
		4166.9,-658.9 	"/>
	<polygon class="st1" points="4062.9,-824.1 4003.1,-782.5 4005.1,-820.8 4096,-930.4 4140.6,-885.8 4071,-794.5 	"/>
	<polygon class="st1" points="4085.6,339.4 3982.3,259.8 3986.7,251 4137,251 4137,379.1 	"/>
	<polygon class="st1" points="3995.2,233.7 3871,151.9 3871,95.7 4007,95.7 4040,160 4116.2,116 4137,122.8 4137,131.6 4137,169.1 
		4137,180.7 4137,251 3986.7,251 	"/>
	<polygon class="st1" points="4007,95.7 3871,95.7 3871,-26.7 3952.3,-95.3 3952.3,-143.7 3991.7,-143.7 3991.7,-169.6 
		4082.6,-201.4 4137,-125.5 4137,-19 4137,-11.4 4062,6.4 4062,37 4137,37 4137,45 4137,68 4137,74.6 4137,104 4116.2,116 4040,160 
			"/>
	<polygon class="st1" points="4137,-11.4 4137,37 4062,37 4062,6.4 	"/>
	<polygon class="st1" points="4137,-188.6 4137,-125.5 4082.6,-201.4 4073.4,-214.3 	"/>
	<polygon class="st1" points="4137,-225.9 4137,-188.6 4073.4,-214.3 4050,-246.8 	"/>
	<polygon class="st1" points="4137,-262 4137,-225.9 4050,-246.8 4039.1,-262 	"/>
	<polygon class="st1" points="4137,-276 4137,-262 4039.1,-262 4021.7,-286.3 4038.2,-312.5 4085,-276 	"/>
	<polygon class="st1" points="4105.5,-520 4087.5,-488 3999.6,-488 4043.8,-540.4 	"/>
	<polygon class="st1" points="4087.5,-488 4060,-439 3988.7,-475 3999.6,-488 	"/>
	<polygon class="st1" points="4085.6,339.4 4085.6,432.8 4050,410.5 4050,361 3964.8,295.5 3982.3,259.8 	"/>
	<polygon class="st1" points="4042.5,-226.7 4073.4,-214.3 4082.6,-201.4 3991.7,-169.6 3991.7,-227.8 3980,-240.2 3925.1,-298.7 
		3944,-327.1 	"/>
	<polygon class="st1" points="4081,963.8 4081,1177.2 3825,1265 3777.6,1038.1 3807.4,1024 3948.4,1096.4 	"/>
	<polygon class="st2" points="4081,925 4081,963.8 3948.4,1096.4 3807.4,1024 4017.7,924 	"/>
	<polygon class="st1" points="4050,-246.8 4073.4,-214.3 4042.5,-226.7 3944,-327.1 3956.7,-346.4 4032.6,-262 4039.1,-262 	"/>
	<polygon class="st1" points="4062.9,-824.1 4071,-794.5 3999.1,-703.9 4003.1,-782.5 	"/>
	<polygon class="st2" points="3969.6,-365.9 3956.7,-346.4 3917.3,-390.1 3963.8,-445.4 4062.9,-351.9 4038.2,-312.5 	"/>
	<polygon class="st1" points="4050,361 4050,410.5 3941.7,342.4 3964.8,295.5 	"/>
	<polygon class="st1" points="4021.7,-286.3 4039.1,-262 4032.6,-262 3956.7,-346.4 3969.6,-365.9 4038.2,-312.5 	"/>
	<polygon class="st1" points="4017.7,924 3807.4,1024 3777.6,1038.1 3752.9,919.6 	"/>
	<polygon class="st1" points="3887.3,-563 3887.3,-526.9 3887.3,-483 3868.1,-483 3868.1,-599 3926.2,-729 4003.1,-782.5 
		3999.1,-703.9 	"/>
	<polygon class="st1" points="3871,151.9 3995.2,233.7 3986.7,251 3971,251 3925.1,215.6 3872.8,215.6 3851.9,180.5 3805,180.5 
		3805,95.7 3871,95.7 	"/>
	<polygon class="st1" points="3952.3,-143.7 3952.3,-95.3 3871,-26.7 3871,-127.5 3991.7,-169.6 3991.7,-143.7 	"/>
	<polygon class="st1" points="3597.1,-241 3532,-174.5 3563,-130 3610,-187.5 3621.7,-187.5 3621.7,-180 3687.5,-151.6 
		3687.5,-78.3 3733,-11 3755,-18.6 3775.8,-25.7 3762.5,-54.5 3784.7,-64.9 3789.7,-17 3849,-42.3 3842.5,-92.1 3828.3,-200.3 
		3899,-245 3935,-204.6 3955.6,-220.9 3980,-240.2 3991.7,-227.8 3991.7,-169.6 3871,-127.5 3871,-26.7 3823.8,13 3763,13 3709,13 
		3647.7,-61.6 3670.3,-119.7 3614.3,-153.7 3575,-77.7 3464.3,-111.6 3464.3,-131 3477.7,-144.3 3522,-127.5 3522,-209 3590,-277 
		3621.7,-277 3621.7,-241 	"/>
	<polygon class="st1" points="3982.3,259.8 3964.8,295.5 3907,251 3971,251 	"/>
	<polygon class="st1" points="3913,-280.3 3925.1,-298.7 3980,-240.2 3955.6,-220.9 3955,-221.7 3898.7,-280.3 	"/>
	<polygon class="st1" points="3907,251 3894,251 3872.8,215.6 3925.1,215.6 3971,251 	"/>
	<polygon class="st1" points="3763,251 3894,251 3907,251 3964.8,295.5 3941.7,342.4 3883.5,305.8 3670,383 3670,403.6 
		3633.8,389.7 3741,251 	"/>
	<polygon class="st1" points="3962.6,-810.4 3926.2,-729 3868.1,-688.6 3868.1,-777.4 3844.7,-806.4 3863.8,-843.8 	"/>
	<polygon class="st1" points="3917.3,-390.1 3956.7,-346.4 3944,-327.1 3901,-370.9 	"/>
	<polygon class="st1" points="3837.2,-225 3824,-253.3 3851,-280.3 3898.7,-280.3 3955,-221.7 3955.6,-220.9 3935,-204.6 3899,-245 
		3828.3,-200.3 3842.5,-92.1 3784.7,-64.9 3772.5,-181.6 	"/>
	<polygon class="st1" points="3901,-370.9 3944,-327.1 3925.1,-298.7 3906.7,-318.3 3778.2,-455.1 3774,-496 3792,-496 3795,-479 
		3868.1,-404.5 3887.3,-384.9 	"/>
	<polygon class="st1" points="3670,403.6 3670,383 3883.5,305.8 3941.7,342.4 3903,421 3780,421 3670,483.7 	"/>
	<polygon class="st1" points="3926.2,-729 3868.1,-599 3868.1,-688.6 	"/>
	<polygon class="st1" points="3898.7,-280.3 3851,-280.3 3824,-253.3 3803.8,-296.3 3829.7,-318.3 3906.7,-318.3 3925.1,-298.7 
		3913,-280.3 	"/>
	<polygon class="st1" points="3534.6,-449.2 3635,-505 3407,-623 3407,-692.2 3439,-770 3407,-784.3 3407,-829.7 3563,-721 
		3521,-848 3579,-802 3662.7,-851.9 3710,-496 3774,-496 3778.2,-455.1 3906.7,-318.3 3829.7,-318.3 3803.8,-296.3 3772,-364 
		3621.7,-364 3491,-364 3491,-425 	"/>
	<polygon class="st1" points="3872.8,215.6 3894,251 3763,251 3763,202.1 3784.5,180.5 3805,180.5 3851.9,180.5 	"/>
	<polygon class="st1" points="3887.3,-483 3887.3,-384.9 3868.1,-404.5 3868.1,-483 	"/>
	<polygon class="st1" points="3823.8,13 3871,-26.7 3871,95.7 3805,95.7 3805,28.9 	"/>
	<polygon class="st1" points="3792,-496 3769,-629 3829,-651 3851,-483 3868.1,-483 3868.1,-404.5 3795,-479 	"/>
	<polygon class="st1" points="3868.1,-688.6 3868.1,-599 3868.1,-483 3851,-483 3829,-651 3769,-629 3792,-496 3774,-496 
		3746.1,-771.9 3811,-740 3844.7,-806.4 3868.1,-777.4 	"/>
	<polygon class="st1" points="3863.8,-843.8 3844.7,-806.4 3796.2,-866.6 	"/>
	<polygon class="st2" points="3842.5,-92.1 3849,-42.3 3789.7,-17 3784.7,-64.9 	"/>
	<polygon class="st1" points="3772.5,-181.6 3755,-169.8 3712,-141 3687.5,-151.6 3687.5,-187.5 3621.7,-187.5 3621.7,-241 
		3811.7,-241 3824,-253.3 3837.2,-225 	"/>
	<polygon class="st1" points="3803.8,-296.3 3824,-253.3 3811.7,-241 3621.7,-241 3621.7,-277 3781,-277 	"/>
	<polygon class="st1" points="3805,28.9 3805,95.7 3769,95.7 3763,105.1 3763,13 3823.8,13 	"/>
	<polygon class="st1" points="3805,95.7 3805,180.5 3784.5,180.5 3763,202.1 3763,105.1 3769,95.7 	"/>
	<polygon class="st1" points="3772,-364 3803.8,-296.3 3781,-277 3621.7,-277 3621.7,-364 	"/>
	<polygon class="st1" points="3772.5,-181.6 3784.7,-64.9 3762.5,-54.5 3775.8,-25.7 3755,-18.6 3755,-169.8 	"/>
	<polygon class="st1" points="3746.1,-771.9 3774,-496 3710,-496 3662.7,-851.9 3679.3,-861.8 3689,-800 	"/>
	<polygon class="st1" points="3670,295.1 3763,202.1 3763,251 3741,251 3633.8,389.7 3575,367.2 3670,225.9 	"/>
	<polygon class="st1" points="3723.5,167.6 3763,105.1 3763,202.1 3670,295.1 3670,225.9 3709.1,167.6 	"/>
	<polygon class="st2" points="3709.1,167.6 3701.3,167.6 3670,167.6 3670,102.6 3670,87 3670,-21 3589,-21 3589,-73 3638.3,-73 
		3647.7,-61.6 3709,13 3763,13 3763,105.1 3723.5,167.6 	"/>
	<polygon class="st1" points="3755,-169.8 3755,-18.6 3733,-11 3687.5,-78.3 3687.5,-151.6 3712,-141 	"/>
	<polygon class="st1" points="3710.6,1218 3710.6,1344.2 3483.8,1616.9 3533,1377 3437.4,1321.5 	"/>
	<polygon class="st1" points="3574.3,1176.1 3592.3,1129.3 3710.6,1187.6 3710.6,1218 3437.4,1321.5 3157.9,1427.5 3124.6,1112.2 	
		"/>
	<polygon class="st1" points="3710.6,988.7 3710.6,1187.6 3592.3,1129.3 3632,1025.6 	"/>
	<polygon class="st1" points="3709.1,167.6 3670,225.9 3670,213.3 3701.3,167.6 	"/>
	<polygon class="st1" points="3701.3,167.6 3670,213.3 3670,167.6 	"/>
	<polygon class="st1" points="3687.5,-187.5 3687.5,-151.6 3621.7,-180 3621.7,-187.5 	"/>
	<polygon class="st1" points="3589,-73 3464.3,-73 3464.3,-111.6 3575,-77.7 3614.3,-153.7 3670.3,-119.7 3647.7,-61.6 3638.3,-73 	
		"/>
	<polygon class="st1" points="3670,403.6 3670,483.7 3565.2,543.5 3536.7,515.5 3633.8,389.7 	"/>
	<polygon class="st1" points="3670,213.3 3670,225.9 3575,367.2 3566.6,364 	"/>
	<polygon class="st1" points="3670,167.6 3670,213.3 3566.6,364 3420.5,308.1 3591.1,167.6 	"/>
	<polygon class="st1" points="3670,102.6 3670,167.6 3591.1,167.6 	"/>
	<polygon class="st1" points="3670,87 3670,102.6 3591.1,167.6 3571.5,167.6 	"/>
	<polygon class="st1" points="3518.6,148.2 3518.6,138.1 3518.6,50.2 3518.6,42.2 3275,148.6 3275,131.6 3275,112.6 3369,85 
		3289.4,-46 3374,-111 3374,-139.3 3434,-120.9 3434,-73 3464.3,-73 3589,-73 3589,-21 3670,-21 3670,87 3571.5,167.6 3518.6,167.6 
			"/>
	<polygon class="st2" points="3658.6,-883.2 3662.7,-851.9 3579,-802 3521,-848 3563,-721 3407,-829.7 3407,-835.2 3479,-816 
		3530,-882 3568,-834 	"/>
	<polygon class="st1" points="3635,-505 3534.6,-449.2 3368.6,-598.9 3407,-692.2 3407,-623 	"/>
	<polygon class="st1" points="3633.8,389.7 3536.7,515.5 3499.8,479.2 3575,367.2 	"/>
	<polygon class="st1" points="3632,1025.6 3592.3,1129.3 3503.8,1085.8 	"/>
	<polygon class="st2" points="3621.7,-241 3621.7,-187.5 3610,-187.5 3563,-130 3532,-174.5 3597.1,-241 	"/>
	<polygon class="st2" points="3522,-209 3522,-127.5 3477.7,-144.3 3464.3,-131 3464.3,-111.6 3434,-120.9 3434,-290 3491,-290 
		3491,-364 3621.7,-364 3621.7,-277 3590,-277 	"/>
	<polygon class="st2" points="3592.3,1129.3 3574.3,1176.1 3124.6,1112.2 3117.8,1047.9 3194.5,933.6 3363.8,1016.9 3429,1121 
		3503.8,1085.8 	"/>
	<polygon class="st1" points="3591.1,167.6 3420.5,308.1 3406.4,302.7 3571.5,167.6 	"/>
	<polygon class="st1" points="3575,367.2 3499.8,479.2 3492.5,471.9 3566.6,364 	"/>
	<polygon class="st1" points="3571.5,167.6 3406.4,302.7 3313.8,267.2 3518.6,148.2 3518.6,167.6 	"/>
	<polygon class="st2" points="3492.5,471.9 3361.4,663 3255,663 3211.9,479.8 3420.5,308.1 3566.6,364 	"/>
	<polygon class="st1" points="3536.7,515.5 3483,585 3483,663 3376.3,663 3499.8,479.2 	"/>
	<polygon class="st1" points="3491,-425 3491,-364 3434,-364 3434,-454.6 3321.1,-610.1 3258.4,-696.4 3269.6,-736.9 3343.1,-684.4 
		3319.8,-823.3 3407,-784.3 3407,-692.2 3368.6,-598.9 3534.6,-449.2 	"/>
	<polygon class="st1" points="3362.6,1496.5 2895.8,1832.5 2831.5,1555.1 3161,1555.1 3171.3,1555.1 3157.9,1427.5 3437.4,1321.5 
		3533,1377 3483.8,1616.9 3362.6,1762.5 	"/>
	<polygon class="st1" points="3518.6,138.1 3518.6,148.2 3313.8,267.2 3302.8,263 	"/>
	<polygon class="st1" points="3518.6,50.2 3518.6,138.1 3302.8,263 3275,252.4 3275,157.8 	"/>
	<polygon class="st1" points="3518.6,42.2 3518.6,50.2 3275,157.8 3275,148.6 	"/>
	<polygon class="st1" points="3503.8,1085.8 3429,1121 3363.8,1016.9 	"/>
	<polygon class="st1" points="3499.8,479.2 3376.3,663 3361.4,663 3492.5,471.9 	"/>
	<rect x="3434" y="-364" class="st1" width="57" height="74"/>
	<polygon class="st1" points="3464.3,-111.6 3464.3,-73 3434,-73 3434,-120.9 	"/>
	<polygon class="st2" points="3439,-770 3407,-692.2 3407,-784.3 	"/>
	<polygon class="st1" points="3374,-183.6 3374,-241.5 3374,-282 3374,-316.6 3391,-290 3434,-290 3434,-120.9 3374,-139.3 	"/>
	<polygon class="st1" points="3434,-364 3434,-290 3391,-290 3374,-316.6 3249.8,-510.9 3321.1,-610.1 3434,-454.6 	"/>
	<polygon class="st1" points="3420.5,308.1 3211.9,479.8 3208.4,464.8 3406.4,302.7 	"/>
	<polygon class="st1" points="3406.4,302.7 3208.4,464.8 3180.2,344.9 3313.8,267.2 	"/>
	<polygon class="st1" points="3376.3,663 3194.5,933.6 3180.4,926.7 3361.4,663 	"/>
	<polygon class="st1" points="3374,-139.3 3374,-111 3289.4,-46 3273,-73 3223.1,-73 3300.5,-129.7 3374,-183.6 	"/>
	<polygon class="st1" points="3374,-241.5 3374,-183.6 3300.5,-129.7 3268.8,-167.5 3317,-199 3317,-241.5 	"/>
	<polygon class="st1" points="3374,-282 3374,-241.5 3317,-241.5 3317,-339 	"/>
	<polygon class="st2" points="3317,-339 3167,-489 3005,-489 3005,-519.4 3179.6,-519.4 3017.9,-673 3016.2,-747.5 3048.5,-669 
		3072.8,-691.6 3232.1,-486.4 3249.8,-510.9 3374,-316.6 3374,-282 	"/>
	<polygon class="st1" points="3289.4,-46 3369,85 3275,112.6 3275,-35 	"/>
	<polygon class="st1" points="3099.8,711 3099.8,572.1 3211.9,479.8 3255,663 3361.4,663 3180.4,926.7 3099.8,887 	"/>
	<polygon class="st1" points="3305.1,-756 3265.3,-847.6 3319.8,-823.3 3343.1,-684.4 3269.6,-736.9 3258.4,-696.4 3220.5,-748.6 	
		"/>
	<polygon class="st1" points="3258.4,-696.4 3321.1,-610.1 3249.8,-510.9 3167.6,-639.4 3167.6,-683 3239.6,-628.9 	"/>
	<polygon class="st1" points="3317,-241.5 3317,-199 3268.8,-167.5 3242.1,-199.3 3275,-223 3275,-241.5 	"/>
	<polygon class="st1" points="3153,-400 3005,-400 3005,-489 3167,-489 3317,-339 3317,-241.5 3275,-241.5 3275,-289.2 
		3247.5,-314.2 3221.8,-337.6 3162,-391.8 	"/>
	<polygon class="st1" points="3313.8,267.2 3180.2,344.9 3177.9,335.3 3302.8,263 	"/>
	<polygon class="st1" points="3275,252.4 3302.8,263 3177.9,335.3 3149.2,213.3 3275,157.8 	"/>
	<polygon class="st1" points="2802.8,-194.9 2889.7,-127.9 2944,-86 3144,-86 3268.8,-167.5 3300.5,-129.7 3223.1,-73 2808,-73 
		2780.6,-73 2754.9,-124.8 2777,-126 2794.6,-201.3 	"/>
	<polygon class="st1" points="3273,-73 3289.4,-46 3275,-35 3275,112.6 3135.2,153.7 3127,119 3099.8,119 3099.8,17.4 3223.1,-73 	
		"/>
	<polygon class="st1" points="3275,148.6 3275,157.8 3149.2,213.3 3147.1,204.5 	"/>
	<polygon class="st1" points="3275,131.6 3275,148.6 3147.1,204.5 3139.1,170.6 	"/>
	<polygon class="st1" points="3275,112.6 3275,131.6 3139.1,170.6 3135.2,153.7 	"/>
	<polygon class="st2" points="3185.6,-266.6 3162,-243 3162,-337.3 3221.8,-337.6 3247.5,-314.2 3247.5,-241.5 3275,-241.5 
		3275,-223 3242.1,-199.3 	"/>
	<polygon class="st1" points="3275,-289.2 3275,-241.5 3247.5,-241.5 3247.5,-314.2 	"/>
	<polygon class="st1" points="3242.1,-199.3 3268.8,-167.5 3144,-86 2944,-86 2889.7,-127.9 2889.7,-146 2985,-94 3096,-94 	"/>
	<polygon class="st1" points="3167.6,-639.4 3249.8,-510.9 3232.1,-486.4 3072.8,-691.6 3110.1,-726.2 3167.6,-683 	"/>
	<polygon class="st1" points="3070,-151 3162,-243 3185.6,-266.6 3242.1,-199.3 3096,-94 2985,-94 2889.7,-146 2889.7,-229.7 
		2936.5,-229.7 2936.5,-222 3007.5,-151 	"/>
	<polygon class="st1" points="3099.8,17.4 3099.8,119 2808,119 2808,-73 3223.1,-73 	"/>
	<polygon class="st1" points="3221.8,-337.6 3162,-337.3 3162,-391.8 	"/>
	<polygon class="st1" points="3208.4,464.8 3211.9,479.8 3099.8,572.1 3099.8,553.6 	"/>
	<polygon class="st1" points="3180.2,344.9 3208.4,464.8 3099.8,553.6 3099.8,391.7 	"/>
	<polygon class="st1" points="3194.5,933.6 3117.8,1047.9 3124.6,1112.2 3115.7,1110.9 3107.7,1032.6 3180.4,926.7 	"/>
	<polygon class="st1" points="3107.7,1032.6 3115.7,1110.9 2904.8,1080.9 2841.5,876.2 2871.8,759.9 2931.1,711 3099.8,711 
		3099.8,887 3180.4,926.7 	"/>
	<polygon class="st1" points="3177.9,335.3 3180.2,344.9 3099.8,391.7 3099.8,380.5 	"/>
	<polygon class="st1" points="3179.6,-519.4 3005,-519.4 3005,-532.9 3002.6,-532.9 2843.4,-588.2 2867.5,-628.7 2944.1,-577.9 
		2906.6,-654.4 3088.1,-568.9 3019.1,-619.9 3017.9,-673 	"/>
	<polygon class="st1" points="3149.2,213.3 3177.9,335.3 3099.8,380.5 3099.8,235.2 	"/>
	<polygon class="st1" points="3157.9,1427.5 3171.3,1555.1 3161,1555.1 3148.3,1431.1 	"/>
	<polygon class="st1" points="3167.6,-779.6 3167.6,-683 3110.1,-726.2 	"/>
	<polygon class="st1" points="3096.3,-297 3096.3,-337 3162,-337.3 3162,-243 3070,-151 3007.5,-151 2936.5,-222 2936.5,-229.7 
		2936.5,-283.5 2989.4,-336.4 3005,-336.5 3005,-297 	"/>
	<polygon class="st1" points="3162,-391.8 3162,-337.3 3096.3,-337 3096.3,-383.4 3005,-383.4 3005,-400 3153,-400 	"/>
	<polygon class="st1" points="2845.9,1245 2997.8,1194.9 2979.8,1494.9 3148.3,1431.1 3161,1555.1 2831.5,1555.1 2800.8,1422.4 
		2765.7,1271.4 	"/>
	<polygon class="st1" points="3124.6,1112.2 3157.9,1427.5 3148.3,1431.1 3115.7,1110.9 	"/>
	<polygon class="st1" points="3147.1,204.5 3149.2,213.3 3099.8,235.2 3099.8,225.1 	"/>
	<polygon class="st1" points="3115.7,1110.9 3148.3,1431.1 2979.8,1494.9 2997.8,1194.9 2845.9,1245 2784.6,1095.4 2841.5,876.2 
		2904.8,1080.9 	"/>
	<polygon class="st1" points="3139.1,170.6 3147.1,204.5 3099.8,225.1 3099.8,181.9 	"/>
	<polygon class="st1" points="3135.2,153.7 3139.1,170.6 3099.8,181.9 3099.8,164.1 	"/>
	<polygon class="st1" points="3127,119 3135.2,153.7 3099.8,164.1 3099.8,119 	"/>
	<polygon class="st2" points="3099.8,572.1 3099.8,711 2931.1,711 	"/>
	<polygon class="st1" points="3099.8,553.6 3099.8,572.1 2931.1,711 2907.5,711 	"/>
	<polygon class="st1" points="3099.8,391.7 3099.8,553.6 2907.5,711 2790.6,711 2754,592.7 	"/>
	<polygon class="st1" points="3099.8,380.5 3099.8,391.7 2754,592.7 2750.9,582.5 	"/>
	<polygon class="st1" points="3099.8,235.2 3099.8,380.5 2750.9,582.5 2723.4,493.6 2727.1,399.7 	"/>
	<polygon class="st1" points="3099.8,225.1 3099.8,235.2 2727.1,399.7 2727.5,387.7 	"/>
	<polygon class="st1" points="3099.8,181.9 3099.8,225.1 2727.5,387.7 2729.6,334.1 2680.2,353.6 2665.7,306.5 	"/>
	<polygon class="st1" points="3099.8,164.1 3099.8,181.9 2665.7,306.5 2661.5,292.9 	"/>
	<polygon class="st1" points="2808,119 3099.8,119 3099.8,164.1 2661.5,292.9 2592.4,69 2653,69 2727.5,-73 2780.6,-73 2808,-73 	
		"/>
	<polygon class="st1" points="3096.3,-337 3096.3,-297 3005,-297 3005,-336.5 	"/>
	<polygon class="st1" points="3096.3,-383.4 3096.3,-337 3005,-336.5 3005,-383.4 	"/>
	<polygon class="st1" points="2989.4,-336.4 2936.5,-283.5 2924.8,-271.8 2899.4,-297.2 2961.1,-383.4 3005,-383.4 3005,-336.5 	"/>
	<polygon class="st1" points="3005,-400 3005,-383.4 2961.1,-383.4 2973,-400 	"/>
	<polygon class="st1" points="2973,-400 2961.1,-383.4 2899.4,-297.2 2857,-238 2875,-154 2889.7,-146 2889.7,-127.9 2802.8,-194.9 
		2945,-489 3005,-489 3005,-400 	"/>
	<polygon class="st1" points="3005,-519.4 3005,-489 2945,-489 2802.8,-194.9 2794.6,-201.3 2823.8,-326 2863.1,-394.9 
		2844.4,-413.6 2869.1,-519.4 	"/>
	<polygon class="st1" points="2844.4,-413.6 2823.8,-326 2747.6,-192.4 2648.3,-231.4 2659.5,-260.5 2627.5,-312.5 2591.6,-370.9 
		2698.1,-351.4 2689.1,-414.4 2740.1,-414.4 2764.4,-455.2 2783.3,-487 2812.3,-535.9 2843.4,-588.2 3002.6,-532.9 3005,-532.9 
		3005,-519.4 2869.1,-519.4 	"/>
	<polygon class="st1" points="2924.8,-271.8 2936.5,-283.5 2936.5,-229.7 2889.7,-229.7 2889.7,-146 2875,-154 2857,-238 
		2899.4,-297.2 	"/>
	<polygon class="st1" points="2931.1,711 2871.8,759.9 2841.5,876.2 2833.7,850.6 2860.9,749.1 2907.5,711 	"/>
	<polygon class="st1" points="2907.5,711 2860.9,749.1 2833.7,850.6 2790.6,711 	"/>
	<polygon class="st2" points="2867.5,-628.7 2843.4,-588.2 2756.6,-618.4 2795.6,-618.4 2813.6,-618.4 2800.4,-673.3 	"/>
	<polygon class="st2" points="2863.1,-394.9 2823.8,-326 2844.4,-413.6 	"/>
	<polygon class="st1" points="2784.6,1095.4 2845.9,1245 2765.7,1271.4 2751.3,1209 	"/>
	<polygon class="st1" points="2843.4,-588.2 2812.3,-535.9 2738.6,-535.9 2738.6,-661.7 2795.6,-618.4 2756.6,-618.4 	"/>
	<polygon class="st1" points="2833.7,850.6 2841.5,876.2 2784.6,1095.4 2774.5,1070.7 	"/>
	<polygon class="st1" points="2790.6,711 2833.7,850.6 2774.5,1070.7 2676.7,831.9 2619.7,855.9 2619.7,670.8 2718.8,613.2 
		2715,711 	"/>
	<polygon class="st1" points="2800.8,1422.4 2831.5,1555.1 2703.4,1555.1 	"/>
	<polygon class="st1" points="2794.6,-201.3 2777,-126 2754.9,-124.8 2737,-161 2552.1,-61.4 2524.6,-150.4 2563,-150.4 
		2617.1,-150.4 2648.3,-231.4 2747.6,-192.4 2823.8,-326 	"/>
	<polygon class="st1" points="2812.3,-535.9 2783.3,-487 2734.5,-487 2563,-669.6 2563,-795.5 2738.6,-661.7 2738.6,-535.9 	"/>
	<polygon class="st0" points="2502.5,981 2691,949 2744.8,1181.2 2751.3,1209 2765.7,1271.4 2800.8,1422.4 2703.4,1555.1 
		2173,1555.1 2173,321 2380.3,321 2371.9,378 2369.9,391.4 2360.9,452.4 2429.9,517.8 2439.4,526.8 2505.3,589.2 2485.7,667.7 
		2465.8,747.5 2462.1,762.4 2445,831 2567,831 	"/>
	<polygon class="st1" points="2754,592.7 2790.6,711 2715,711 2718.8,613.2 	"/>
	<polygon class="st1" points="2774.5,1070.7 2784.6,1095.4 2751.3,1209 2744.8,1181.2 	"/>
	<polygon class="st1" points="2783.3,-487 2764.4,-455.2 2734.5,-487 	"/>
	<polygon class="st1" points="2727.5,-73 2653,69 2592.4,69 2572.6,5.1 2699.6,-121.9 2754.9,-124.8 2780.6,-73 	"/>
	<polygon class="st1" points="2676.7,831.9 2774.5,1070.7 2744.8,1181.2 2691,949 2502.5,981 2567,831 2445,831 2462.1,762.4 
		2619.7,670.8 2619.7,855.9 	"/>
	<polygon class="st1" points="2764.4,-455.2 2740.1,-414.4 2689.1,-414.4 2698.1,-351.4 2591.6,-370.9 2627.5,-312.5 2563,-277.1 
		2563,-487 2734.5,-487 	"/>
	<polygon class="st1" points="2737,-161 2754.9,-124.8 2699.6,-121.9 2572.6,5.1 2552.1,-61.4 	"/>
	<polygon class="st1" points="2750.9,582.5 2754,592.7 2718.8,613.2 2719.3,600.8 	"/>
	<polygon class="st1" points="2723.4,493.6 2750.9,582.5 2719.3,600.8 	"/>
	<polygon class="st1" points="2563,-669.6 2734.5,-487 2563,-487 	"/>
	<polygon class="st1" points="2729.6,334.1 2727.5,387.7 2695.1,401.9 2680.2,353.6 	"/>
	<polygon class="st1" points="2727.5,387.7 2727.1,399.7 2698.4,412.4 2695.1,401.9 	"/>
	<polygon class="st1" points="2727.1,399.7 2723.4,493.6 2698.4,412.4 	"/>
	<polygon class="st1" points="2698.4,412.4 2723.4,493.6 2719.3,600.8 2619.7,658.4 2619.7,621.8 2619.7,605.1 2681,524 
		2574.5,467.1 	"/>
	<polygon class="st1" points="2719.3,600.8 2718.8,613.2 2619.7,670.8 2619.7,658.4 	"/>
	<polygon class="st0" points="2703.4,1555.1 2316.2,2083 2173,2083 2173,1555.1 	"/>
	<polygon class="st1" points="2695.1,401.9 2698.4,412.4 2574.5,467.1 2561.6,460.2 	"/>
	<polygon class="st1" points="2540.3,448.8 2534.5,472.1 2429.9,517.8 2360.9,452.4 2369.9,391.4 2550.4,339.6 2550.4,405 
		2680.2,353.6 2695.1,401.9 2561.6,460.2 	"/>
	<polygon class="st1" points="2681,524 2619.7,605.1 2619.7,572 2544.2,626 2505.3,589.2 2530.9,486.3 2574.5,467.1 	"/>
	<polygon class="st1" points="2665.7,306.5 2680.2,353.6 2550.4,405 2550.4,339.6 	"/>
	<polygon class="st1" points="2661.5,292.9 2665.7,306.5 2550.4,339.6 2550.4,325.6 	"/>
	<polygon class="st2" points="2592.4,69 2661.5,292.9 2550.4,325.6 2550.4,257.6 2550.4,69 	"/>
	<polygon class="st1" points="2648.3,-231.4 2617.1,-150.4 2563,-150.4 2563,-277.1 2627.5,-312.5 2659.5,-260.5 	"/>
	<polygon class="st1" points="2619.7,621.8 2619.7,658.4 2465.8,747.5 2485.7,667.7 2544.2,626 2579,659 2619.7,605.1 	"/>
	<polygon class="st1" points="2619.7,572 2619.7,605.1 2579,659 2544.2,626 	"/>
	<polygon class="st1" points="2572.6,5.1 2592.4,69 2550.4,69 2550.4,27.4 	"/>
	<polygon class="st1" points="2574.5,467.1 2530.9,486.3 2534.5,472.1 2561.6,460.2 	"/>
	<polygon class="st1" points="2550.4,27.4 2550.4,69 2500.2,69 2490.6,69 2503,-35 2552.1,-61.4 2572.6,5.1 	"/>
	<polygon class="st1" points="2524.6,-150.4 2552.1,-61.4 2503,-35 2490.6,69 2465,69 2465,-195 2359.4,-195 2216.7,-475.9 
		2093.8,-475.9 2046.7,-569.7 2125,-799 2149,-789.6 2149,-571 2485.5,-234.5 2563,-277.1 2563,-150.4 	"/>
	<polygon class="st1" points="2563,-487 2563,-277.1 2485.5,-234.5 2149,-571 2149,-789.6 2479,-661 2479,-487 	"/>
	<polygon class="st2" points="2563,-669.6 2563,-487 2479,-487 2479,-661 2149,-789.6 2149,-857 2387,-857 	"/>
	<polygon class="st1" points="2563,-795.5 2563,-669.6 2387,-857 2149,-857 2149,-905 2346.7,-960.2 	"/>
	<polygon class="st1" points="2540.3,448.8 2561.6,460.2 2534.5,472.1 	"/>
	<polygon class="st1" points="2550.4,325.6 2550.4,339.6 2369.9,391.4 2371.9,378 	"/>
	<polygon class="st1" points="2550.4,257.6 2550.4,325.6 2371.9,378 2380.3,321 2460.7,321 2490.6,69 2500.2,69 2550.4,69 	"/>
	<polygon class="st1" points="2505.3,589.2 2544.2,626 2485.7,667.7 	"/>
	<polygon class="st1" points="2534.5,472.1 2530.9,486.3 2439.4,526.8 2429.9,517.8 	"/>
	<polygon class="st1" points="2439.4,526.8 2530.9,486.3 2505.3,589.2 	"/>
	<polygon class="st1" points="2465,69 2490.6,69 2460.7,321 2380.3,321 2405.9,147.1 2366.8,69 2460.7,69 	"/>
	<polygon class="st1" points="2465,-195 2465,69 2460.7,69 2366.8,69 2286,-92.2 2326.1,-132.4 2413.1,38.6 2446.1,-24.4 
		2359.4,-195 	"/>
	<polygon class="st2" points="2359.4,-195 2446.1,-24.4 2413.1,38.6 2326.1,-132.4 2286,-92.2 2234.5,-195 	"/>
	<polygon class="st0" points="2286,-92.2 2366.8,69 2405.9,147.1 2380.3,321 2173,321 2173,1555.1 2059.6,1555.1 1865,1555.1 
		1703.5,1555.1 1703.5,-857 2021,-857 2021,-621.1 2046.7,-569.7 2093.8,-475.9 2234.5,-195 	"/>
	<polygon class="st1" points="2216.7,-475.9 2359.4,-195 2234.5,-195 2093.8,-475.9 	"/>
	<polygon class="st1" points="2149,-905 2149,-857 2021,-857 2021,-937.5 2090.7,-925.9 1975.2,-1018.8 2269.6,-1018.8 
		2346.7,-960.2 	"/>
	<polygon class="st1" points="2149,-857 2149,-789.6 2125,-799 2046.7,-569.7 2021,-621.1 2021,-857 	"/>
</g>
</svg>
